<svg version="1.1" xmlns="http://www.w3.org/2000/svg" xmlns:xlink="http://www.w3.org/1999/xlink" width="1560" height="804"><defs/><g><path fill="none" stroke="#02063B" paint-order="fill stroke markers" d=" M 20 419.4987961956106 L 21 420.3591779296514 L 22 421.21743699043066 L 23 422.0734741467318 L 24 422.92719042423323 L 25 423.7784871169514 L 26 424.627265798653 L 27 425.4734283342354 L 28 426.3168768910725 L 29 427.1575139503263 L 30 427.99524231822176 L 31 428.8299651372845 L 32 429.66158589753917 L 33 430.490008447668 L 34 431.3151370061276 L 35 432.13687617222337 L 36 432.95513093713936 L 37 433.7698066949234 L 38 434.580809253425 L 39 435.3880448451862 L 40 436.19142013828264 L 41 436.9908422471145 L 42 437.78621874314587 L 43 438.57745766559157 L 44 439.364467532049 L 45 440.1471573490757 L 46 440.92543662271 L 47 441.6992153689334 L 48 442.4684041240749 L 49 443.23291395515446 L 50 443.9926564701655 L 51 444.7475438282947 L 52 445.4974887500779 L 53 446.2424045274916 L 54 446.98220503397766 L 55 447.7168047344017 L 56 448.4461186949421 L 57 449.17006259291026 L 58 449.8885527264999 L 59 450.60150602446447 L 60 451.30884005572204 L 61 452.0104730388855 L 62 452.7063238517184 L 63 453.39631204051426 L 64 454.0803578293983 L 65 454.7583821295511 L 66 455.43030654835314 L 67 456.096053398448 L 68 456.75554570672494 L 69 457.4087072232181 L 70 458.0554624299227 L 71 458.6957365495264 L 72 459.32945555405473 L 73 459.95654617343035 L 74 460.57693590394456 L 75 461.1905530166398 L 76 461.79732656560327 L 77 462.39718639616933 L 78 462.9900631530309 L 79 463.5758882882583 L 80 464.1545940692244 L 81 464.7261135864363 L 82 465.2903807612709 L 83 465.8473303536151 L 84 466.3968979694089 L 85 466.93902006809014 L 86 467.4736339699415 L 87 468.0006778633373 L 88 468.52009081189004 L 89 469.03181276149587 L 90 469.5357845472781 L 91 470.03194790042755 L 92 470.52024545493975 L 93 471.0006207542475 L 94 471.4730182577483 L 95 471.93738334722605 L 96 472.39366233316565 L 97 472.8418024609608 L 98 473.2817519170135 L 99 473.7134598347243 L 100 474.13687630037407 L 101 474.55195235889437 L 102 474.95864001952805 L 103 475.3568922613776 L 104 475.7466630388418 L 105 476.1279072869396 L 106 476.5005809265201 L 107 476.8646408693595 L 108 477.2200450231424 L 109 477.5667522963288 L 110 477.90472260290505 L 111 478.23391686701837 L 112 478.55429702749495 L 113 478.8658260422405 L 114 479.1684678925229 L 115 479.4621875871371 L 116 479.7469511664501 L 117 480.02272570632783 L 118 480.2894793219417 L 119 480.547181171455 L 120 480.7958014595889 L 121 481.0353114410674 L 122 481.26568342394063 L 123 481.4868907727868 L 124 481.69890791179165 L 125 481.90171032770553 L 126 482.0952745726776 L 127 482.2795782669669 L 128 482.45460010152965 L 129 482.6203198404835 L 130 482.7767183234464 L 131 482.92377746775276 L 132 483.0614802705436 L 133 483.18981081073247 L 134 483.30875425084645 L 135 483.4182968387414 L 136 483.5184259091923 L 137 483.60912988535705 L 138 483.69039828011563 L 139 483.7622216972821 L 140 483.8245918326912 L 141 483.8775014751585 L 142 483.92094450731406 L 143 483.95491590630974 L 144 483.97941174439984 L 145 483.9944291893956 L 146 483.9999665049921 L 147 483.99602305096937 L 148 483.98259928326644 L 149 483.9596967539284 L 150 483.92731811092716 L 151 483.88546709785516 L 152 483.8341485534925 L 153 483.7733684112478 L 154 483.7031336984717 L 155 483.62345253564473 L 156 483.53433413543837 L 157 483.4357888016497 L 158 483.3278279280103 L 159 483.2104639968689 L 160 483.083710577748 L 161 482.947582325775 L 162 482.80209497998806 L 163 482.6472653615161 L 164 482.483111371634 L 165 482.309651989693 L 166 482.1269072709261 L 167 481.93489834412946 L 168 481.7336474092195 L 169 481.52317773466604 L 170 481.30351365480215 L 171 481.0746805670106 L 172 480.8367049287874 L 173 480.58961425468283 L 174 480.33343711312017 L 175 480.0682031230928 L 176 479.7939429507395 L 177 479.510688305799 L 178 479.2184719379436 L 179 478.9173276329926 L 180 478.60729020900646 L 181 478.28839551226065 L 182 477.9606804131013 L 183 477.6241828016824 L 184 477.2789415835848 L 185 476.92499667531825 L 186 476.5623889997059 L 187 476.1911604811531 L 188 475.8113540408 L 189 475.4230135915593 L 190 475.0261840330387 L 191 474.6209112463499 L 192 474.20724208880387 L 193 473.785224388493 L 194 473.35490693876153 L 195 472.91633949256396 L 196 472.46957275671275 L 197 472.0146583860155 L 198 471.5516489773029 L 199 471.080598063347 L 200 470.60156010667265 L 201 470.1145904932598 L 202 469.61974552614015 L 203 469.11708241888743 L 204 468.60665928900244 L 205 468.08853515119347 L 206 467.562769910553 L 207 467.02942435563193 L 208 466.4885601514105 L 209 465.9402398321695 L 210 465.3845267942594 L 211 464.82148528877093 L 212 464.25118041410633 L 213 463.6736781084527 L 214 463.08904514215806 L 215 462.4973491100119 L 216 461.89865842342954 L 217 461.29304230254263 L 218 460.68057076819576 L 219 460.061314633851 L 220 459.43534549740036 L 221 458.8027357328877 L 222 458.1635584821409 L 223 457.5178876463152 L 224 456.8657978773491 L 225 456.20736456933264 L 226 455.5426638497909 L 227 454.871772570882 L 228 454.19476830051144 L 229 453.51172931336384 L 230 452.8227345818529 L 231 452.12786376699063 L 232 451.4271972091771 L 233 450.7208159189114 L 234 450.00880156742545 L 235 449.29123647724094 L 236 448.5682036126517 L 237 447.83978657013114 L 238 447.1060695686668 L 239 446.36713744002327 L 240 445.6230756189341 L 241 444.8739701332234 L 242 444.1199075938599 L 243 443.36097518494284 L 244 442.59726065362173 L 245 441.82885229995134 L 246 441.05583896668213 L 247 440.2783100289888 L 248 439.49635538413656 L 249 438.7100654410872 L 250 437.9195311100461 L 251 437.1248437919515 L 252 436.32609536790653 L 253 435.5233781885562 L 254 434.71678506340965 L 255 433.90640925010985 L 256 433.09234444365103 L 257 432.2746847655459 L 258 431.45352475294317 L 259 430.62895934769756 L 260 429.8010838853924 L 261 428.9699940843172 L 262 428.1357860344006 L 263 427.2985561861009 L 264 426.4584013392539 L 265 425.61541863188165 L 266 424.7697055289611 L 267 423.9213598111552 L 268 423.0704795635078 L 269 422.217163164103 L 270 421.36150927269085 L 271 420.5036168192802 L 272 419.6435849927007 L 273 418.78151322913465 L 274 417.9175012006201 L 275 417.05164880352703 L 276 416.1840561470073 L 277 415.3148235414202 L 278 414.44405148673457 L 279 413.5718406609091 L 280 412.69829190825203 L 281 411.8235062277617 L 282 410.94758476144887 L 283 410.0706287826431 L 284 409.1927396842833 L 285 408.3140189671951 L 286 407.4345682283551 L 287 406.55448914914433 L 288 405.6738834835922 L 289 404.79285304661147 L 290 403.9114997022267 L 291 403.02992535179675 L 292 402.148231922233 L 293 401.2665213542146 L 294 400.38489559040227 L 295 399.50345656365187 L 296 398.6223061852287 L 297 397.74154633302476 L 298 396.8612788397799 L 299 395.9816054813077 L 300 395.1026279647284 L 301 394.22444791670955 L 302 393.347166871716 L 303 392.47088626027056 L 304 391.595707397227 L 305 390.72173147005543 L 306 389.8490595271438 L 307 388.97779246611435 L 308 388.10803102215795 L 309 387.23987575638733 L 310 386.3734270442102 L 311 385.5087850637239 L 312 384.6460497841329 L 313 383.7853209541905 L 314 382.9266980906659 L 315 382.07028046683826 L 316 381.21616710101847 L 317 380.3644567451012 L 318 379.5152478731471 L 319 378.668638669997 L 320 377.8247270199204 L 321 376.9836104952978 L 322 376.14538634533955 L 323 375.31015148484204 L 324 374.4780024829824 L 325 373.64903555215324 L 326 372.8233465368388 L 327 372.00103090253333 L 328 371.18218372470346 L 329 370.3668996777958 L 330 369.5552730242906 L 331 368.74739760380317 L 332 367.94336682223445 L 333 367.14327364097124 L 334 366.3472105661383 L 335 365.55526963790254 L 336 364.7675424198319 L 337 363.98411998830835 L 338 363.20509292199796 L 339 362.4305512913784 L 340 361.66058464832474 L 341 360.89528201575575 L 342 360.13473187734104 L 343 359.3790221672708 L 344 358.62824026008883 L 345 357.88247296059023 L 346 357.1418064937853 L 347 356.4063264949301 L 348 355.6761179996258 L 349 354.9512654339861 L 350 354.23185260487696 L 351 353.51796269022606 L 352 352.80967822940636 L 353 352.10708111369274 L 354 351.4102525767939 L 355 350.71927318545994 L 356 350.03422283016783 L 357 349.35518071588393 L 358 348.68222535290676 L 359 348.0154345477896 L 360 347.3548853943445 L 361 346.70065426472877 L 362 346.052816800615 L 363 345.4114479044454 L 364 344.7766217307716 L 365 344.14841167768077 L 366 343.5268903783098 L 367 342.9121296924472 L 368 342.30420069822486 L 369 341.70317368390005 L 370 341.10911813972865 L 371 340.5221027499308 L 372 339.9421953847499 L 373 339.36946309260503 L 374 338.80397209233934 L 375 338.2457877655636 L 376 337.69497464909693 L 377 337.1515964275052 L 378 336.6157159257375 L 379 336.087395101863 L 380 335.56669503990673 L 381 335.05367594278755 L 382 334.5483971253573 L 383 334.0509170075432 L 384 333.56129310759286 L 385 333.07958203542444 L 386 332.60583948608155 L 387 332.1401202332933 L 388 331.6824781231421 L 389 331.2329660678376 L 390 330.79163603959887 L 391 330.3585390646459 L 392 329.93372521729975 L 393 329.5172436141928 L 394 329.1091424085902 L 395 328.7094687848223 L 396 328.3182689528295 L 397 327.9355881428189 L 398 327.5614706000354 L 399 327.19595957964594 L 400 326.8390973417382 L 401 326.4909251464346 L 402 326.1514832491221 L 403 325.82081089579754 L 404 325.4989463185301 L 405 325.18592673104126 L 406 324.8817883244017 L 407 324.58656626284755 L 408 324.3002946797139 L 409 324.02300667348914 L 410 323.75473430398756 L 411 323.49550858864296 L 412 323.2453594989223 L 413 323.0043159568605 L 414 322.7724058317163 L 415 322.54965593675036 L 416 322.3360920261248 L 417 322.1317387919257 L 418 321.93661986130843 L 419 321.7507577937653 L 420 321.57417407851796 L 421 321.40688913203223 L 422 321.248922295658 L 423 321.1002918333928 L 424 320.9610149297701 L 425 320.8311076878725 L 426 320.7105851274699 L 427 320.59946118328315 L 428 320.4977487033724 L 429 320.4054594476521 L 430 320.32260408653116 L 431 320.24919219967927 L 432 320.1852322749192 L 433 320.1307317072456 L 434 320.0856967979699 L 435 320.05013275399176 L 436 320.02404368719704 L 437 320.00743261398264 L 438 320.00030145490723 L 439 320.00265103446975 L 440 320.0144810810136 L 441 320.03579022675854 L 442 320.06657600795825 L 443 320.1068348651858 L 444 320.15656214374474 L 445 320.21575209420746 L 446 320.28439787307985 L 447 320.3624915435927 L 448 320.4500240766191 L 449 320.54698535171866 L 450 320.6533641583073 L 451 320.7691481969537 L 452 320.8943240808013 L 453 321.0288773371159 L 454 321.17279240895914 L 455 321.3260526569871 L 456 321.4886403613742 L 457 321.660536723862 L 458 321.8417218699324 L 459 322.0321748511059 L 460 322.23187364736316 L 461 322.4407951696914 L 462 322.6589152627536 L 463 322.8862087076816 L 464 323.1226492249915 L 465 323.36820947762266 L 466 323.62286107409767 L 467 323.88657457180557 L 468 324.15931948040566 L 469 324.44106426535274 L 470 324.7317763515433 L 471 325.0314221270819 L 472 325.3399669471668 L 473 325.6573751380962 L 474 325.98361000139255 L 475 326.31863381804556 L 476 326.66240785287323 L 477 327.01489235900056 L 478 327.37604658245476 L 479 327.7458287668775 L 480 328.12419615835245 L 481 328.51110501034884 L 482 328.9065105887788 L 483 329.3103671771703 L 484 329.72262808195194 L 485 330.14324563785243 L 486 330.572171213411 L 487 331.0093552166006 L 488 331.4547471005613 L 489 331.9082953694447 L 490 332.3699475843679 L 491 332.8396503694762 L 492 333.31734941811453 L 493 333.80298949910633 L 494 334.2965144631394 L 495 334.7978672492576 L 496 335.30698989145844 L 497 335.823823525395 L 498 336.34830839518173 L 499 336.88038386030337 L 500 337.4199884026262 L 501 337.96705963351064 L 502 338.52153430102476 L 503 339.0833482972572 L 504 339.65243666572934 L 505 340.2287336089057 L 506 340.812172495801 L 507 341.40268586968443 L 508 342.0002054558787 L 509 342.60466216965375 L 510 343.21598612421474 L 511 343.83410663878175 L 512 344.45895224676235 L 513 345.09045070401396 L 514 345.7285289971973 L 515 346.3731133522176 L 516 347.0241292427546 L 517 347.68150139887894 L 518 348.3451538157551 L 519 349.0150097624291 L 520 349.69099179069946 L 521 350.3730217440725 L 522 351.0610207667981 L 523 351.75490931298737 L 524 352.4546071558093 L 525 353.16003339676683 L 526 353.87110647505017 L 527 354.5877441769667 L 528 355.30986364544657 L 529 356.03738138962257 L 530 356.77021329448314 L 531 357.5082746305979 L 532 358.25148006391373 L 533 358.9997436656212 L 534 359.7529789220897 L 535 360.5110987448697 L 536 361.27401548076216 L 537 362.0416409219529 L 538 362.81388631621104 L 539 363.5906623771504 L 540 364.3718792945529 L 541 365.1574467447521 L 542 365.9472739010766 L 543 366.7412694443512 L 544 367.53934157345515 L 545 368.34139801593625 L 546 369.147346038679 L 547 369.9570924586269 L 548 370.7705436535555 L 549 371.58760557289736 L 550 372.40818374861624 L 551 373.2321833061289 L 552 374.0595089752748 L 553 374.8900651013312 L 554 375.72375565607234 L 555 376.56048424887257 L 556 377.40015413785056 L 557 378.24266824105484 L 558 379.0879291476881 L 559 379.93583912936987 L 560 380.7863001514358 L 561 381.63921388427235 L 562 382.4944817146855 L 563 383.3520047573023 L 564 384.2116838660042 L 565 385.0734196453898 L 566 385.9371124622673 L 567 386.8026624571737 L 568 387.6699695559206 L 569 388.53893348116475 L 570 389.40945376400185 L 571 390.28142975558285 L 572 391.15476063875093 L 573 392.02934543969764 L 574 392.90508303963765 L 575 393.7818721864999 L 576 394.6596115066345 L 577 395.5381995165331 L 578 396.41753463456257 L 579 397.2975151927098 L 580 398.1780394483364 L 581 399.05900559594204 L 582 399.9403117789353 L 583 400.8218561014102 L 584 401.70353663992705 L 585 402.5852514552971 L 586 403.4668986043686 L 587 404.3483761518133 L 588 405.22958218191195 L 589 406.11041481033817 L 590 406.9907721959379 L 591 407.8705525525042 L 592 408.74965416054584 L 593 409.62797537904794 L 594 410.5054146572235 L 595 411.381870546255 L 596 412.2572417110233 L 597 413.13142694182443 L 598 414.0043251660709 L 599 414.87583545997813 L 600 415.7458570602327 L 601 416.6142893756429 L 602 417.4810319987688 L 603 418.3459847175312 L 604 419.2090475267985 L 605 420.0701206399486 L 606 420.9291045004064 L 607 421.7858997931549 L 608 422.6404074562171 L 609 423.4925286921101 L 610 424.3421649792678 L 611 425.1892180834318 L 612 426.03359006900916 L 613 426.8751833103958 L 614 427.71390050326374 L 615 428.5496446758114 L 616 429.38231919997537 L 617 430.21182780260256 L 618 431.03807457658115 L 619 431.8609639919292 L 620 432.68040090684 L 621 433.49629057868214 L 622 434.30853867495335 L 623 435.1170512841876 L 624 435.92173492681286 L 625 436.72249656595886 L 626 437.51924361821455 L 627 438.3118839643318 L 628 439.1003259598768 L 629 439.88447844582544 L 630 440.6642507591033 L 631 441.4395527430681 L 632 442.2102947579331 L 633 442.9763876911318 L 634 443.73774296762053 L 635 444.49427256011984 L 636 445.24588899929176 L 637 445.99250538385326 L 638 446.7340353906235 L 639 447.4703932845045 L 640 448.20149392839386 L 641 448.9272527930281 L 642 449.64758596675597 L 643 450.36241016524014 L 644 451.0716427410865 L 645 451.77520169339994 L 646 452.473005677265 L 647 453.1649740131511 L 648 453.85102669624035 L 649 454.53108440567814 L 650 455.2050685137435 L 651 455.8729010949407 L 652 456.5345049350082 L 653 457.18980353984676 L 654 457.8387211443631 L 655 458.4811827212301 L 656 459.11711398956135 L 657 459.7464414234994 L 658 460.36909226071674 L 659 460.98499451082864 L 660 461.5940769637164 L 661 462.19626919776096 L 662 462.7915015879845 L 663 463.379705314101 L 664 463.96081236847255 L 665 464.5347555639729 L 666 465.1014685417554 L 667 465.6608857789251 L 668 466.2129425961148 L 669 466.75757516496304 L 670 467.29472051549396 L 671 467.8243165433978 L 672 468.3463020172114 L 673 468.86061658539757 L 674 469.3672007833231 L 675 469.86599604013395 L 676 470.35694468552697 L 677 470.83998995641815 L 678 471.31507600350494 L 679 471.7821478977239 L 680 472.24115163660156 L 681 472.69203415049776 L 682 473.1347433087421 L 683 473.56922792566064 L 684 473.99543776649443 L 685 474.4133235532074 L 686 474.8228369701838 L 687 475.2239306698144 L 688 475.6165582779712 L 689 476.00067439936834 L 690 476.3762346228116 L 691 476.74319552633244 L 692 477.10151468220886 L 693 477.4511506618707 L 694 477.7920630406895 L 695 478.1242124026527 L 696 478.4475603449203 L 697 478.76206948226553 L 698 479.06770345139705 L 699 479.36442691516316 L 700 479.6522055666377 L 701 479.93100613308644 L 702 480.20079637981394 L 703 480.4615451138907 L 704 480.7132221877596 L 705 480.9557985027215 L 706 481.1892460122996 L 707 481.4135377254821 L 708 481.6286477098432 L 709 481.83455109454087 L 710 482.03122407319285 L 711 482.21864390662876 L 712 482.39678892551956 L 713 482.5656385328826 L 714 482.72517320646324 L 715 482.87537450099194 L 716 483.01622505031685 L 717 483.14770856941163 L 718 483.2698098562586 L 719 483.38251479360576 L 720 483.4858103505999 L 721 483.5796845842924 L 722 483.6641266410205 L 723 483.7391267576621 L 724 483.8046762627646 L 725 483.8607675775472 L 726 483.90739421677785 L 727 483.9445507895221 L 728 483.9722329997673 L 729 483.9904376469187 L 730 483.9991626261698 L 731 483.99840692874545 L 732 483.9881706420189 L 733 483.9684549495013 L 734 483.93926213070495 L 735 483.90059556088 L 736 483.85245971062375 L 737 483.7948601453643 L 738 483.7278035247166 L 739 483.6512976017128 L 740 483.5653512219056 L 741 483.4699743223457 L 742 483.365177930433 L 743 483.25097416264117 L 744 483.1273762231173 L 745 482.9943984021549 L 746 482.85205607454185 L 747 482.70036569778244 L 748 482.5393448101952 L 749 482.3690120288844 L 750 482.1893870475882 L 751 482.00049063440105 L 752 481.80234462937324 L 753 481.594971941985 L 754 481.3783965484984 L 755 481.1526434891847 L 756 480.9177388654295 L 757 480.6737098367148 L 758 480.4205846174792 L 759 480.15839247385503 L 760 479.88716372028534 L 761 479.60692971601867 L 762 479.31772286148333 L 763 479.01957659454115 L 764 478.7125253866218 L 765 478.3966047387368 L 766 478.0718511773754 L 767 477.73830225028075 L 768 477.39599652210944 L 769 477.044973569972 L 770 476.6852739788576 L 771 476.316939336941 L 772 475.940012230775 L 773 475.5545362403657 L 774 475.16055593413455 L 775 474.75811686376494 L 776 474.34726555893593 L 777 473.928049521942 L 778 473.50051722220144 L 779 473.06471809065187 L 780 472.62070251403554 L 781 472.1685218290732 L 782 471.70822831652896 L 783 471.23987519516527 L 784 470.76351661559033 L 785 470.27920765399665 L 786 469.78700430579363 L 787 469.28696347913296 L 788 468.7791429883298 L 789 468.2636015471771 L 790 467.74039876215835 L 791 467.20959512555504 L 792 466.6712520084533 L 793 466.1254316536474 L 794 465.57219716844446 L 795 465.01161251736653 L 796 464.44374251475665 L 797 463.86865281728365 L 798 463.28640991635217 L 799 462.6970811304139 L 800 462.10073459718535 L 801 461.4974392657687 L 802 460.8872648886812 L 803 460.27028201378914 L 804 459.6465619761524 L 805 459.01617688977547 L 806 458.37919963927106 L 807 457.735703871432 L 808 457.0857639867173 L 809 456.42945513064905 L 810 455.76685318512506 L 811 455.09803475964463 L 812 454.42307718245195 L 813 453.7420584915943 L 814 453.0550574259007 L 815 452.3621534158769 L 816 451.6634265745227 L 817 450.95895768806866 L 818 450.2488282066362 L 819 449.5331202348198 L 820 448.8119165221949 L 821 448.08530045374954 L 822 447.35335604024453 L 823 446.61616790849894 L 824 445.873821291607 L 825 445.12640201908215 L 826 444.3739965069347 L 827 443.6166917476795 L 828 442.85457530027884 L 829 442.0877352800179 L 830 441.3162603483182 L 831 440.5402397024854 L 832 439.7597630653973 L 833 438.97492067512945 L 834 438.18580327452275 L 835 437.3925021006907 L 836 436.59510887447186 L 837 435.79371578982403 L 838 434.98841550316587 L 839 434.1793011226634 L 840 433.36646619746483 L 841 432.55000470688526 L 842 431.7300110495396 L 843 430.9065800324299 L 844 430.07980685998206 L 845 429.24978712304 L 846 428.4166167878123 L 847 427.5803921847776 L 848 426.741209997546 L 849 425.89916725168155 L 850 425.05436130348335 L 851 424.2068898287302 L 852 423.3568508113864 L 853 422.5043425322739 L 854 421.64946355770826 L 855 420.79231272810335 L 856 419.9329891465427 L 857 419.0715921673221 L 858 418.20822138446124 L 859 417.3429766201902 L 860 416.4759579134065 L 861 415.60726550811 L 862 414.7369998418119 L 863 413.8652615339229 L 864 412.9921513741188 L 865 412.1177703106884 L 866 411.24221943886084 L 867 410.36559998911804 L 868 409.48801331548947 L 869 408.60956088383483 L 870 407.7303442601115 L 871 406.85046509863275 L 872 405.9700251303132 L 873 405.0891261509082 L 874 404.20787000924304 L 875 403.3263585954383 L 876 402.4446938291284 L 877 401.5629776476788 L 878 400.6813119943989 L 879 399.7997988067569 L 880 398.91854000459216 L 881 398.0376374783329 L 882 397.1571930772145 L 883 396.27730859750477 L 884 395.39808577073336 L 885 394.51962625193056 L 886 393.64203160787326 L 887 392.7654033053427 L 888 391.88984269939186 L 889 391.0154510216281 L 890 390.1423293685079 L 891 389.2705786896487 L 892 388.40029977615677 L 893 387.5315932489745 L 894 386.66455954724563 L 895 385.79929891670395 L 896 384.9359113980813 L 897 384.0744968155427 L 898 383.21515476514327 L 899 382.3579846033141 L 900 381.5030854353738 L 901 380.65055610407103 L 902 379.8004951781554 L 903 378.95300094098195 L 904 378.1081713791467 L 905 377.2661041711587 L 906 376.42689667614525 L 907 375.5906459225965 L 908 374.7574485971461 L 909 373.92740103339327 L 910 373.1005992007638 L 911 372.27713869341534 L 912 371.4571147191835 L 913 370.6406220885754 L 914 369.82775520380653 L 915 369.01860804788697 L 916 368.2132741737544 L 917 367.4118466934585 L 918 366.61441826739406 L 919 365.8210810935894 L 920 365.0319268970447 L 921 364.2470469191284 L 922 363.46653190702676 L 923 362.6904721032526 L 924 361.91895723521077 L 925 361.1520765048248 L 926 360.3899185782224 L 927 359.6325715754853 L 928 358.88012306045937 L 929 358.13266003063177 L 930 357.3902689070717 L 931 356.6530355244387 L 932 355.9210451210587 L 933 355.19438232906816 L 934 354.47313116463005 L 935 353.7573750182187 L 936 353.0471966449794 L 937 352.34267815515955 L 938 351.6439010046157 L 939 350.950945985395 L 940 350.26389321639493 L 941 349.5828221340993 L 942 348.90781148339425 L 943 348.2389393084637 L 944 347.57628294376616 L 945 346.9199190050928 L 946 346.26992338071017 L 947 345.6263712225848 L 948 344.98933693769555 L 949 344.35889417942957 L 950 343.7351158390674 L 951 343.11807403735463 L 952 342.50784011616406 L 953 341.90448463024654 L 954 341.30807733907426 L 955 340.7186871987742 L 956 340.1363823541566 L 957 339.56123013083504 L 958 338.9932970274433 L 959 338.43264870794604 L 960 337.8793499940474 L 961 337.3334648576956 L 962 336.7950564136877 L 963 336.26418691237103 L 964 335.740917732447 L 965 335.22530937387353 L 966 334.71742145087103 L 967 334.21731268502907 L 968 333.72504089851776 L 969 333.24066300740157 L 970 332.7642350150595 L 971 332.29581200570954 L 972 331.83544813804025 L 973 331.38319663894845 L 974 330.93910979738575 L 975 330.5032389583125 L 976 330.07563451676174 L 977 329.65634591201206 L 978 329.2454216218719 L 979 328.84290915707436 L 980 328.4488550557843 L 981 328.0633048782171 L 982 327.6863032013717 L 983 327.3178936138761 L 984 326.95811871094816 L 985 326.6070200894702 L 986 326.2646383431802 L 987 325.93101305797785 L 988 325.6061828073481 L 989 325.290185147901 L 990 324.98305661502974 L 991 324.6848327186861 L 992 324.39554793927516 L 993 324.1152357236684 L 994 323.8439284813369 L 995 323.5816575806039 L 996 323.3284533450184 L 997 323.0843450498485 L 998 322.84936091869747 L 999 322.6235281202398 L 1000 322.4068727650807 L 1001 322.1994199027365 L 1002 322.0011935187389 L 1003 321.8122165318616 L 1004 321.63251079147057 L 1005 321.46209707499776 L 1006 321.3009950855389 L 1007 321.14922344957523 L 1008 321.0067997148203 L 1009 320.87374034819084 L 1010 320.7500607339028 L 1011 320.63577517169284 L 1012 320.5308968751651 L 1013 320.4354379702631 L 1014 320.349409493868 L 1015 320.2728213925224 L 1016 320.20568252128055 L 1017 320.14800064268434 L 1018 320.0997824258656 L 1019 320.0610334457756 L 1020 320.03175818254 L 1021 320.0119600209408 L 1022 320.00164125002567 L 1023 320.0008030628423 L 1024 320.00944555630133 L 1025 320.02756773116465 L 1026 320.0551674921611 L 1027 320.0922416482287 L 1028 320.1387859128836 L 1029 320.19479490471565 L 1030 320.26026214801067 L 1031 320.33518007349903 L 1032 320.4195400192311 L 1033 320.51333223157815 L 1034 320.61654586636087 L 1035 320.7291689901024 L 1036 320.8511885814085 L 1037 320.98259053247307 L 1038 321.1233596507091 L 1039 321.2734796605053 L 1040 321.4329332051079 L 1041 321.60170184862733 L 1042 321.77976607817 L 1043 321.967105306094 L 1044 322.16369787238995 L 1045 322.3695210471846 L 1046 322.5845510333695 L 1047 322.808762969352 L 1048 323.04213093193005 L 1049 323.28462793928884 L 1050 323.53622595412133 L 1051 323.7968958868689 L 1052 324.0666075990855 L 1053 324.3453299069217 L 1054 324.63303058473025 L 1055 324.9296763687922 L 1056 325.2352329611625 L 1057 325.5496650336359 L 1058 325.8729362318312 L 1059 326.20500917939455 L 1060 326.54584548232117 L 1061 326.8954057333941 L 1062 327.2536495167408 L 1063 327.6205354125053 L 1064 327.9960210016382 L 1065 328.38006287080003 L 1066 328.7726166173815 L 1067 329.17363685463675 L 1068 329.58307721693126 L 1069 330.0008903651023 L 1070 330.42702799193273 L 1071 330.8614408277356 L 1072 331.3040786460514 L 1073 331.7548902694543 L 1074 332.2138235754702 L 1075 332.6808255026025 L 1076 333.15584205646724 L 1077 333.63881831603544 L 1078 334.12969843998405 L 1079 334.628425673151 L 1080 335.1349423530984 L 1081 335.64918991677814 L 1082 336.17110890730436 L 1083 336.7006389808265 L 1084 337.237718913507 L 1085 337.78228660859963 L 1086 338.3342791036292 L 1087 338.8936325776711 L 1088 339.46028235873047 L 1089 340.034162931219 L 1090 340.6152079435306 L 1091 341.20335021571196 L 1092 341.79852174723084 L 1093 342.4006537248373 L 1094 343.00967653052066 L 1095 343.62551974955784 L 1096 344.2481121786557 L 1097 344.87738183418213 L 1098 345.5132559604903 L 1099 346.15566103832924 L 1100 346.8045227933451 L 1101 347.45976620466774 L 1102 348.1213155135857 L 1103 348.78909423230425 L 1104 349.4630251527897 L 1105 350.1430303556955 L 1106 350.82903121937176 L 1107 351.52094842895485 L 1108 352.21870198553836 L 1109 352.92221121542184 L 1110 353.6313947794389 L 1111 354.34617068236093 L 1112 355.06645628237794 L 1113 355.7921683006528 L 1114 356.5232228309509 L 1115 357.25953534934 L 1116 358.00102072396436 L 1117 358.74759322488603 L 1118 359.49916653399805 L 1119 360.2556537550041 L 1120 361.0169674234652 L 1121 361.7830195169125 L 1122 362.5537214650242 L 1123 363.32898415986625 L 1124 364.1087179661946 L 1125 364.8928327318191 L 1126 365.68123779802636 L 1127 366.4738420100623 L 1128 367.2705537276705 L 1129 368.0712808356887 L 1130 368.8759307546978 L 1131 369.684410451727 L 1132 370.4966264510093 L 1133 371.3124848447899 L 1134 372.1318913041827 L 1135 372.95475109007776 L 1136 373.7809690640938 L 1137 374.610449699579 L 1138 375.4430970926549 L 1139 376.2788149733054 L 1140 377.1175067165067 L 1141 377.9590753534 L 1142 378.80342358250186 L 1143 379.65045378095505 L 1144 380.5000680158148 L 1145 381.35216805537266 L 1146 382.20665538051287 L 1147 383.0634311961042 L 1148 383.9223964424216 L 1149 384.78345180660006 L 1150 385.6464977341167 L 1151 386.51143444030146 L 1152 387.37816192187375 L 1153 388.24657996850533 L 1154 389.11658817440576 L 1155 389.9880859499322 L 1156 390.86097253321844 L 1157 391.7351470018259 L 1158 392.6105082844113 L 1159 393.48695517241345 L 1160 394.3643863317537 L 1161 395.24270031455336 L 1162 396.12179557086176 L 1163 397.00157046039885 L 1164 397.881923264305 L 1165 398.76275219690336 L 1166 399.643955417467 L 1167 400.52543104199447 L 1168 401.4070771549887 L 1169 402.28879182124155 L 1170 403.17047309761807 L 1171 404.0520190448446 L 1172 404.9333277392933 L 1173 405.8142972847681 L 1174 406.69482582428435 L 1175 407.57481155184684 L 1176 408.4541527242191 L 1177 409.33274767268836 L 1178 410.21049481481896 L 1179 411.08729266619855 L 1180 411.9630398521704 L 1181 412.83763511955544 L 1182 413.710977348358 L 1183 414.5829655634582 L 1184 415.45349894628544 L 1185 416.3224768464765 L 1186 417.189798793511 L 1187 418.0553645083292 L 1188 418.919073914925 L 1189 419.78082715191744 L 1190 420.64052458409606 L 1191 421.49806681394125 L 1192 422.35335469311565 L 1193 423.20628933392874 L 1194 424.05677212076876 L 1195 424.904704721506 L 1196 425.7499890988606 L 1197 426.5925275217388 L 1198 427.4322225765312 L 1199 428.2689771783769 L 1200 429.10269458238713 L 1201 429.93327839483226 L 1202 430.7606325842852 L 1203 431.5846614927259 L 1204 432.4052698466001 L 1205 433.2223627678357 L 1206 434.0358457848116 L 1207 434.84562484328154 L 1208 435.6516063172472 L 1209 436.45369701978456 L 1210 437.251804213817 L 1211 438.045835622838 L 1212 438.83569944158035 L 1213 439.6213043466296 L 1214 440.40255950698406 L 1215 441.1793745945556 L 1216 441.9516597946141 L 1217 442.7193258161708 L 1218 443.48228390230315 L 1219 444.2404458404159 L 1220 444.9937239724408 L 1221 445.74203120497106 L 1222 446.4852810193316 L 1223 447.2233874815814 L 1224 447.95626525245035 L 1225 448.68382959720464 L 1226 449.40599639544513 L 1227 450.122682150832 L 1228 450.8338040007399 L 1229 451.539279725837 L 1230 452.2390277595923 L 1231 452.93296719770564 L 1232 453.6210178074621 L 1233 454.3031000370081 L 1234 454.9791350245497 L 1235 455.64904460746965 L 1236 456.3127513313656 L 1237 456.9701784590042 L 1238 457.6212499791945 L 1239 458.265890615575 L 1240 458.90402583531863 L 1241 459.5355818577484 L 1242 460.1604856628696 L 1243 460.77866499981087 L 1244 461.39004839517884 L 1245 461.9945651613211 L 1246 462.59214540449955 L 1247 463.1827200329711 L 1248 463.7662207649762 L 1249 464.34258013663344 L 1250 464.9117315097399 L 1251 465.47360907947524 L 1252 466.0281478820108 L 1253 466.5752838020197 L 1254 467.11495358009097 L 1255 467.6470948200423 L 1256 468.1716459961354 L 1257 468.6885464601885 L 1258 469.1977364485893 L 1259 469.6991570892043 L 1260 470.1927504081858 L 1261 470.6784593366745 L 1262 471.1562277173981 L 1263 471.6260003111639 L 1264 472.08772280324564 L 1265 472.5413418096632 L 1266 472.9868048833552 L 1267 473.4240605202421 L 1268 473.853058165182 L 1269 474.27374821781495 L 1270 474.6860820382985 L 1271 475.0900119529306 L 1272 475.4854912596622 L 1273 475.8724742334966 L 1274 476.25091613177625 L 1275 476.62077319935577 L 1276 476.9820026736611 L 1277 477.33456278963325 L 1278 477.67841278455774 L 1279 478.0135129027768 L 1280 478.3398244002869 L 1281 478.657309549217 L 1282 478.965931642192 L 1283 479.26565499657556 L 1284 479.5564449585967 L 1285 479.8382679073558 L 1286 480.1110912587122 L 1287 480.37488346905116 L 1288 480.6296140389314 L 1289 480.8752535166109 L 1290 481.1117735014526 L 1291 481.33914664720766 L 1292 481.55734666517736 L 1293 481.76634832725256 L 1294 481.96612746883073 L 1295 482.15666099160944 L 1296 482.3379268662574 L 1297 482.5099041349612 L 1298 482.67257291384846 L 1299 482.8259143952869 L 1300 482.96991085005885 L 1301 483.104545629411 L 1302 483.22980316697937 L 1303 483.34566898058904 L 1304 483.4521296739286 L 1305 483.54917293809905 L 1306 483.63678755303687 L 1307 483.7149633888114 L 1308 483.7836914067959 L 1309 483.8429636607126 L 1310 483.8927732975517 L 1311 483.9331145583633 L 1312 483.96398277892354 L 1313 483.9853743902739 L 1314 483.99728691913344 L 1315 483.9997189881854 L 1316 483.9926703162359 L 1317 483.9761417182466 L 1318 483.95013510524063 L 1319 483.91465348408155 L 1320 483.86970095712553 L 1321 483.81528272174734 L 1322 483.75140506973923 L 1323 483.67807538658343 L 1324 483.5953021505985 L 1325 483.5030949319588 L 1326 483.40146439158826 L 1327 483.2904222799274 L 1328 483.1699814355752 L 1329 483.0401557838044 L 1330 482.90096033495144 L 1331 482.7524111826813 L 1332 482.5945255021266 L 1333 482.42732154790144 L 1334 482.2508186519916 L 1335 482.06503722151854 L 1336 481.8699987363808 L 1337 481.6657257467696 L 1338 481.45224187056255 L 1339 481.2295717905921 L 1340 480.9977412517924 L 1341 480.7567770582222 L 1342 480.50670706996624 L 1343 480.24756019991366 L 1344 479.9793664104154 L 1345 479.70215670981986 L 1346 479.4159631488879 L 1347 479.12081881708673 L 1348 478.8167578387648 L 1349 478.5038153692056 L 1350 478.1820275905638 L 1351 477.8514317076813 L 1352 477.512065943786 L 1353 477.16396953607216 L 1354 476.8071827311643 L 1355 476.4417467804632 L 1356 476.0677039353772 L 1357 475.6850974424367 L 1358 475.29397153829404 L 1359 474.89437144460896 L 1360 474.4863433628204 L 1361 474.0699344688039 L 1362 473.64519290741845 L 1363 473.21216778693855 L 1364 472.7709091733776 L 1365 472.3214680846985 L 1366 471.8638964849155 L 1367 471.39824727808565 L 1368 470.9245743021928 L 1369 470.44293232292205 L 1370 469.95337702732854 L 1371 469.4559650173984 L 1372 468.9507538035049 L 1373 468.43780179775854 L 1374 467.9171683072545 L 1375 467.38891352721447 L 1376 466.8530985340278 L 1377 466.3097852781893 L 1378 465.75903657713707 L 1379 465.2009161079891 L 1380 464.63548840018143 L 1381 464.062818828007 L 1382 463.4829736030573 L 1383 462.89601976656684 L 1384 462.3020251816623 L 1385 461.7010585255157 L 1386 461.0931892814045 L 1387 460.47848773067744 L 1388 459.85702494462953 L 1389 459.2288727762838 L 1390 458.5941038520847 L 1391 457.95279156350017 L 1392 457.3050100585371 L 1393 456.6508342331675 L 1394 455.99033972266983 L 1395 455.32360289288357 L 1396 454.6507008313803 L 1397 453.9717113385507 L 1398 453.2867129186089 L 1399 452.59578477051696 L 1400 451.8990067788268 L 1401 451.1964595044447 L 1402 450.4882241753167 L 1403 449.77438267703724 L 1404 449.0550175433811 L 1405 448.3302119467619 L 1406 447.6000496886146 L 1407 446.8646151897075 L 1408 446.12399348038053 L 1409 445.3782701907154 L 1410 444.6275315406337 L 1411 443.87186432992956 L 1412 443.1113559282327 L 1413 442.3460942649079 L 1414 441.5761678188878 L 1415 440.80166560844384 L 1416 440.0226771808932 L 1417 439.2392926022462 L 1418 438.4516024467923 L 1419 437.65969778662867 L 1420 436.86367018112946 L 1421 436.0636116663611 L 1422 435.2596147444399 L 1423 434.4517723728381 L 1424 433.64017795363526 L 1425 432.8249253227201 L 1426 432.0061087389403 L 1427 431.18382287320554 L 1428 430.3581627975402 L 1429 429.52922397409304 L 1430 428.69710224409806 L 1431 427.86189381679515 L 1432 427.0236952583049 L 1433 426.1826034804651 L 1434 425.3387157296247 L 1435 424.49212957540124 L 1436 423.6429428993989 L 1437 422.79125388389275 L 1438 421.93716100047567 L 1439 421.0807629986744 L 1440 420.222158894531 L 1441 419.3614479591559 L 1442 418.498729707249 L 1443 417.63410388559527 L 1444 416.76767046153054 L 1445 415.8995296113849 L 1446 415.029781708899 L 1447 414.1585273136202 L 1448 413.28586715927474 L 1449 412.41190214212213 L 1450 411.53673330928854 L 1451 410.6604618470849 L 1452 409.7831890693066 L 1453 408.90501640552105 L 1454 408.026045389339 L 1455 407.1463776466768 L 1456 406.266114884005 L 1457 405.3853588765906 L 1458 404.50421145672857 L 1459 403.6227745019691 L 1460 402.7411499233378 L 1461 401.85943965355364 L 1462 400.97774563524257 L 1463 400.0961698091522 L 1464 399.21481410236413 L 1465 398.33378041651076 L 1466 397.4531706159919 L 1467 396.5730865161987 L 1468 395.69362987174077 L 1469 394.8149023646822 L 1470 393.93700559278454 L 1471 393.0600410577606 L 1472 392.1841101535385 L 1473 391.30931415453915 L 1474 390.43575420396616 L 1475 389.5635313021128 L 1476 388.69274629468316 L 1477 387.82349986113394 L 1478 386.95589250303243 L 1479 386.09002453243795 L 1480 385.22599606030275 L 1481 384.36390698489816 L 1482 383.50385698026366 L 1483 382.64594548468347 L 1484 381.79027168918867 L 1485 380.93693452608966 L 1486 380.08603265753686 L 1487 379.23766446411446 L 1488 378.39192803346464 L 1489 377.54892114894767 L 1490 376.7087412783358 L 1491 375.8714855625445 L 1492 375.0372508044 L 1493 374.20613345744863 L 1494 373.37822961480407 L 1495 372.5536349980373 L 1496 371.73244494610856 L 1497 370.9147544043459 L 1498 370.1006579134665 L 1499 369.2902495986467 L 1500 368.48362315863795 L 1501 367.68087185493533 L 1502 366.8820885009934 L 1503 366.08736545149605 L 1504 365.29679459167704 L 1505 364.51046732669835 L 1506 363.7284745710805 L 1507 362.95090673819186 L 1508 362.1778537297942 L 1509 361.40940492564954 L 1510 360.64564917318535 L 1511 359.88667477722254 L 1512 359.1325694897647 L 1513 358.38342049985374 L 1514 357.6393144234882 L 1515 356.9003372936095 L 1516 356.1665745501534 L 1517 355.4381110301735 L 1518 354.7150309580311 L 1519 353.9974179356579 L 1520 353.28535493288905 L 1521 352.5789242778716 L 1522 351.87820764754497 L 1523 351.18328605819784 L 1524 350.4942398561002 L 1525 349.81114870821546 L 1526 349.13409159298794 L 1527 348.4631467912124 L 1528 347.7983918769823 L 1529 347.1399037087218 L 1530 346.48775842029886 L 1531 345.8420314122229 L 1532 345.2027973429266 L 1533 344.5701301201347 L 1534 343.94410289231837 L 1535 343.32478804023816 L 1536 342.7122571685745 L 1537 342.10658109765023 L 1538 341.5078298552414 L 1539 340.9160726684812" stroke-linecap="round" stroke-linejoin="round" stroke-miterlimit="10" stroke-width="55"/></g></svg>
