<svg version="1.1" xmlns="http://www.w3.org/2000/svg" xmlns:xlink="http://www.w3.org/1999/xlink" width="1560" height="804"><defs/><g><path fill="none" stroke="#02063B" paint-order="fill stroke markers" d=" M 20 424.7944565158689 L 21 425.91842207297776 L 22 427.04008868444134 L 23 428.1593485400302 L 24 429.27609406084287 L 25 430.3902179096461 L 26 431.5016130011913 L 27 432.6101725125075 L 28 433.7157898931689 L 29 434.81835887553547 L 30 435.91777348496765 L 31 437.0139280500117 L 32 438.10671721255693 L 33 439.1960359379618 L 34 440.28177952514983 L 35 441.3638436166728 L 36 442.44212420874135 L 37 443.51651766122137 L 38 444.58692070759554 L 39 445.65323046488874 L 40 446.71534444355683 L 41 447.77316055733775 L 42 448.8265771330634 L 43 449.87549292043207 L 44 450.91980710174045 L 45 451.95941930157363 L 46 452.99422959645284 L 47 454.02413852443976 L 48 455.04904709469645 L 49 456.0688567969997 L 50 457.0834696112098 L 51 458.09278801669177 L 52 459.0967150016883 L 53 460.0951540726448 L 54 461.08800926348334 L 55 462.0751851448269 L 56 463.05658683317165 L 57 464.03212000000667 L 58 465.00169088088046 L 59 465.96520628441334 L 60 466.9225736012544 L 61 467.873700812983 L 62 468.8184965009531 L 63 469.75686985508 L 64 470.688730682569 L 65 471.61398941658376 L 66 472.53255712485566 L 67 473.44434551823144 L 68 474.3492669591592 L 69 475.2472344701118 L 70 476.1381617419466 L 71 477.02196314220157 L 72 477.89855372332573 L 73 478.76784923084375 L 74 479.6297661114546 L 75 480.4842215210621 L 76 481.3311333327376 L 77 482.1704201446136 L 78 483.00200128770814 L 79 483.82579683367806 L 80 484.6417276025015 L 81 485.4497151700882 L 82 486.2496818758179 L 83 487.04155083000387 L 84 487.8252459212841 L 85 488.60069182393636 L 86 489.36781400511825 L 87 490.12653873203124 L 88 490.87679307900737 L 89 491.6185049345185 L 90 492.3516030081077 L 91 493.0760168372412 L 92 493.79167679408084 L 93 494.4985140921769 L 94 495.196460793079 L 95 495.8854498128665 L 96 496.5654149285963 L 97 497.2362907846676 L 98 497.89801289910395 L 99 498.5505176697511 L 100 499.19374238038984 L 101 499.8276252067642 L 102 500.45210522252387 L 103 501.06712240508006 L 104 501.6726176413746 L 105 502.26853273356187 L 106 502.85481040460235 L 107 503.4313943037679 L 108 503.9982290120581 L 109 504.55526004752676 L 110 505.10243387051855 L 111 505.63969788881514 L 112 506.1670004626899 L 113 506.68429090987155 L 114 507.1915195104155 L 115 507.6886375114827 L 116 508.1755971320255 L 117 508.65235156738026 L 118 509.1188549937662 L 119 509.5750625726894 L 120 510.0209304552527 L 121 510.45641578637066 L 122 510.8814767088879 L 123 511.2960723676028 L 124 511.70016291319416 L 125 512.0937095060514 L 126 512.4766743200075 L 127 512.849020545975 L 128 513.2107123954838 L 129 513.5617151041208 L 130 513.9019949348718 L 131 514.2315191813636 L 132 514.5502561710083 L 133 514.8581752680466 L 134 515.1552468764933 L 135 515.4414424429817 L 136 515.7167344595076 L 137 515.9810964660737 L 138 516.234503053233 L 139 516.4769298645302 L 140 516.7083535988439 L 141 516.9287520126254 L 142 517.1381039220369 L 143 517.3363892049873 L 144 517.5235888030672 L 145 517.6996847233798 L 146 517.8646600402705 L 147 518.0184988969536 L 148 518.1611865070373 L 149 518.2927091559436 L 150 518.4130542022274 L 151 518.5222100787912 L 152 518.6201662939969 L 153 518.7069134326744 L 154 518.7824431570263 L 155 518.8467482074293 L 156 518.8998224031325 L 157 518.9416606428506 L 158 518.9722589052548 L 159 518.9916142493591 L 160 518.9997248148034 L 161 518.9965898220315 L 162 518.9822095723669 L 163 518.9565854479831 L 164 518.9197199117712 L 165 518.8716165071031 L 166 518.8122798574908 L 167 518.7417156661423 L 168 518.6599307154129 L 169 518.5669328661539 L 170 518.4627310569565 L 171 518.3473353032932 L 172 518.2207566965546 L 173 518.083007402984 L 174 517.9341006625071 L 175 517.7740507874606 L 176 517.6028731612155 L 177 517.420584236699 L 178 517.2272015348132 L 179 517.0227436427507 L 180 516.8072302122084 L 181 516.5806819574985 L 182 516.3431206535578 L 183 516.0945691338541 L 184 515.8350512881922 L 185 515.5645920604173 L 186 515.2832174460182 L 187 514.9909544896275 L 188 514.6878312824232 L 189 514.3738769594283 L 190 514.0491216967106 L 191 513.713596708482 L 192 513.3673342440986 L 193 513.0103675849609 L 194 512.642731041315 L 195 512.2644599489546 L 196 511.87559066582514 L 197 511.47616056852866 L 198 511.0662080487316 L 199 510.6457725094748 L 200 510.214894361386 L 201 509.7736150187959 L 202 509.32197689575764 L 203 508.8600234019699 L 204 508.38779893860476 L 205 507.9053488940398 L 206 507.4127196394958 L 207 506.90995852457934 L 208 506.3971138727324 L 209 505.87423497658693 L 210 505.3413720932275 L 211 504.7985764393608 L 212 504.24590018639253 L 213 503.6833964554133 L 214 503.1111193120927 L 215 502.5291237614824 L 216 501.9374657427299 L 217 501.33620212370136 L 218 500.7253906955158 L 219 500.10509016699064 L 220 499.4753601589987 L 221 498.83626119873736 L 222 498.18785471391175 L 223 497.53020302682955 L 224 496.86336934841165 L 225 496.18741777211596 L 226 495.5024132677775 L 227 494.8084216753632 L 228 494.10550969864425 L 229 493.3937448987842 L 230 492.6731956878456 L 231 491.94393132221444 L 232 491.2060218959434 L 233 490.45953833401484 L 234 489.7045523855235 L 235 488.9411366167807 L 236 488.169364404339 L 237 487.3893099279399 L 238 486.601048163384 L 239 485.8046548753243 L 240 485.0002066099843 L 241 484.1877806878006 L 242 483.3674551959911 L 243 482.53930898104954 L 244 481.70342164116715 L 245 480.859873518582 L 246 480.00874569185675 L 247 479.15011996808573 L 248 478.284078875032 L 249 477.4107056531949 L 250 476.53008424780967 L 251 475.6422993007787 L 252 474.7474361425359 L 253 473.8455807838456 L 254 472.936819907535 L 255 472.02124086016295 L 256 471.09893164362416 L 257 470.1699809066912 L 258 469.2344779364937 L 259 468.2925126499364 L 260 467.3441755850567 L 261 466.3895578923226 L 262 465.42875132587164 L 263 464.4618482346918 L 264 463.48894155374524 L 265 462.5101247950358 L 266 461.52549203862094 L 267 460.53513792356944 L 268 459.53915763886454 L 269 458.5376469142551 L 270 457.5307020110544 L 271 456.5184197128877 L 272 455.50089731639 L 273 454.4782326218541 L 274 453.4505239238304 L 275 452.4178700016795 L 276 451.3803701100776 L 277 450.33812396947644 L 278 449.291231756519 L 279 448.23979409441057 L 280 447.18391204324723 L 281 446.12368709030255 L 282 445.05922114027294 L 283 443.99061650548276 L 284 442.9179758960509 L 285 441.84140241001825 L 286 440.76099952343844 L 287 439.6768710804324 L 288 438.5891212832069 L 289 437.49785468203913 L 290 436.403176165228 L 291 435.30519094901223 L 292 434.20400456745773 L 293 433.09972286231397 L 294 431.9924519728409 L 295 430.88229832560717 L 296 429.7693686242609 L 297 428.65376983927376 L 298 427.53560919765937 L 299 426.414994172667 L 300 425.29203247345157 L 301 424.16683203472155 L 302 423.039501006364 L 303 421.91014774305006 L 304 420.7788807938203 L 305 419.6458088916512 L 306 418.51104094300445 L 307 417.37468601735907 L 308 416.23685333672796 L 309 415.09765226516043 L 310 413.9571922982298 L 311 412.81558305250985 L 312 411.6729342550384 L 313 410.5293557327709 L 314 409.38495740202444 L 315 408.2398492579129 L 316 407.0941413637746 L 317 405.94794384059355 L 318 404.80136685641486 L 319 403.65452061575616 L 320 402.50751534901485 L 321 401.36046130187333 L 322 400.2134687247025 L 323 399.06664786196524 L 324 397.92010894161956 L 325 396.7739621645245 L 326 395.62831769384775 L 327 394.4832856444773 L 328 393.3389760724376 L 329 392.19549896431135 L 330 391.05296422666805 L 331 389.91148167550017 L 332 388.7711610256682 L 333 387.63211188035524 L 334 386.4944437205321 L 335 385.35826589443496 L 336 384.2236876070546 L 337 383.0908179096406 L 338 381.95976568921935 L 339 380.83063965812863 L 340 379.70354834356823 L 341 378.5786000771689 L 342 377.45590298458006 L 343 376.33556497507703 L 344 375.2176937311891 L 345 374.1023966983498 L 346 372.9897810745696 L 347 371.87995380013206 L 348 370.77302154731575 L 349 369.66909071014084 L 350 368.5682673941433 L 351 367.4706574061759 L 352 366.3763662442393 L 353 365.28549908734124 L 354 364.1981607853875 L 355 363.1144558491038 L 356 362.0344884399914 L 357 360.9583623603145 L 358 359.88618104312394 L 359 358.8180475423153 L 360 357.7540645227237 L 361 356.69433425025636 L 362 355.63895858206274 L 363 354.58803895674487 L 364 353.5416763846072 L 365 352.499971437948 L 366 351.46302424139276 L 367 350.43093446227033 L 368 349.4038013010338 L 369 348.38172348172526 L 370 347.3647992424869 L 371 346.3531263261192 L 372 345.34680197068553 L 373 344.34592290016667 L 374 343.35058531516364 L 375 342.3608848836516 L 376 341.3769167317843 L 377 340.39877543475114 L 378 339.42655500768694 L 379 338.46034889663554 L 380 337.50024996956813 L 381 336.546350507457 L 382 335.5987421954062 L 383 334.6575161138388 L 384 333.72276272974284 L 385 332.7945718879756 L 386 331.87303280262876 L 387 330.95823404845254 L 388 330.0502635523432 L 389 329.14920858489114 L 390 328.25515575199324 L 391 327.36819098652836 L 392 326.4883995400978 L 393 325.61586597483165 L 394 324.7506741552604 L 395 323.8929072402547 L 396 323.0426476750322 L 397 322.1999771832332 L 398 321.3649767590661 L 399 320.537726659522 L 400 319.7183063966609 L 401 318.90679472996965 L 402 318.10326965879136 L 403 317.30780841482886 L 404 316.52048745472104 L 405 315.74138245269467 L 406 314.9705682932904 L 407 314.20811906416543 L 408 313.4541080489724 L 409 312.7086077203157 L 410 311.97168973278553 L 411 311.2434249160711 L 412 310.5238832681523 L 413 309.813133948572 L 414 309.1112452717888 L 415 308.41828470061074 L 416 307.73431883971114 L 417 307.05941342922665 L 418 306.3936333384388 L 419 305.73704255953885 L 420 305.0897042014772 L 421 304.4516804838975 L 422 303.82303273115656 L 423 303.20382136642985 L 424 302.5941059059038 L 425 301.99394495305575 L 426 301.4033961930207 L 427 300.82251638704724 L 428 300.2513613670418 L 429 299.6899860302019 L 430 299.1384443337404 L 431 298.5967892896985 L 432 298.0650729598512 L 433 297.54334645070276 L 434 297.03165990857485 L 435 296.53006251478655 L 436 296.0386024809272 L 437 295.55732704422263 L 438 295.08628246299486 L 439 294.62551401221583 L 440 294.1750659791559 L 441 293.7349816591268 L 442 293.30530335132084 L 443 292.8860723547447 L 444 292.4773289642503 L 445 292.0791124666615 L 446 291.6914611369984 L 447 291.31441223479806 L 448 290.9480020005336 L 449 290.5922656521309 L 450 290.2472373815832 L 451 289.91295035166513 L 452 289.58943669274504 L 453 289.27672749969685 L 454 288.97485282891114 L 455 288.68384169540644 L 456 288.40372207004043 L 457 288.1345208768213 L 458 287.87626399032007 L 459 287.62897623318366 L 460 287.3926813737488 L 461 287.16740212375794 L 462 286.9531601361757 L 463 286.7499760031082 L 464 286.55786925382364 L 465 286.37685835287505 L 466 286.2069606983258 L 467 286.04819262007726 L 468 285.9005693782992 L 469 285.76410516196313 L 470 285.6388130874785 L 471 285.5247051974318 L 472 285.42179245942935 L 473 285.3300847650431 L 474 285.2495909288597 L 475 285.18031868763336 L 476 285.1222746995424 L 477 285.075464543549 L 478 285.0398927188632 L 479 285.0155626445104 L 480 285.0024766590026 L 481 285.0006360201138 L 482 285.0100409047591 L 483 285.0306904089775 L 484 285.0625825480191 L 485 285.1057142565356 L 486 285.160081388875 L 487 285.22567871948013 L 488 285.3024999433909 L 489 285.3905376768502 L 490 285.48978345801373 L 491 285.6002277477632 L 492 285.7218599306234 L 493 285.85466831578213 L 494 285.99864013821434 L 495 286.15376155990884 L 496 286.3200176711981 L 497 286.49739249219186 L 498 286.6858689743126 L 499 286.88542900193437 L 500 287.0960533941239 L 501 287.3177219064843 L 502 287.5504132331009 L 503 287.79410500858893 L 504 288.04877381024335 L 505 288.31439516028996 L 506 288.5909435282384 L 507 288.87839233333585 L 508 289.17671394712175 L 509 289.4858796960836 L 510 289.8058598644128 L 511 290.13662369686085 L 512 290.47813940169544 L 513 290.8303741537561 L 514 291.1932940976093 L 515 291.56686435080235 L 516 291.95104900721645 L 517 292.3458111405175 L 518 292.7511128077056 L 519 293.16691505276185 L 520 293.59317791039257 L 521 294.0298604098709 L 522 294.4769205789744 L 523 294.9343154480194 L 524 295.4020010539912 L 525 295.8799324447695 L 526 296.368063683449 L 527 296.86634785275464 L 528 297.3747370595513 L 529 297.893182439447 L 530 298.42163416148946 L 531 298.9600414329557 L 532 299.50835250423415 L 533 300.06651467379857 L 534 300.63447429327346 L 535 301.21217677259045 L 536 301.7995665852356 L 537 302.396587273586 L 538 303.00318145433664 L 539 303.6192908240155 L 540 304.24485616458776 L 541 304.87981734914734 L 542 305.52411334769636 L 543 306.1776822330109 L 544 306.84046118659313 L 545 307.51238650470947 L 546 308.1933936045133 L 547 308.8834170302525 L 548 309.5823904595607 L 549 310.2902467098323 L 550 311.0069177446791 L 551 311.73233468047033 L 552 312.4664277929534 L 553 313.2091265239552 L 554 313.9603594881641 L 555 314.7200544799912 L 556 315.4881384805103 L 557 316.2645376644766 L 558 317.0491774074221 L 559 317.8419822928282 L 560 318.6428761193748 L 561 319.45178190826414 L 562 320.26862191061986 L 563 321.0933176149598 L 564 321.9257897547425 L 565 322.76595831598553 L 566 323.61374254495655 L 567 324.4690609559348 L 568 325.3318313390434 L 569 326.20197076815066 L 570 327.07939560884114 L 571 327.9640215264538 L 572 328.8557634941882 L 573 329.7545358012768 L 574 330.66025206122333 L 575 331.57282522010564 L 576 332.49216756494314 L 577 333.4181907321275 L 578 334.35080571591584 L 579 335.2899228769854 L 580 336.2354519510493 L 581 337.1873020575329 L 582 338.1453817083082 L 583 339.10959881648785 L 584 340.07986070527585 L 585 341.05607411687544 L 586 342.03814522145274 L 587 343.0259796261551 L 588 344.01948238418396 L 589 345.01855800392065 L 590 346.0231104581047 L 591 347.03304319306386 L 592 348.04825913799385 L 593 349.06866071428914 L 594 350.0941498449213 L 595 351.124627963866 L 596 352.1599960255768 L 597 353.20015451450513 L 598 354.2450034546649 L 599 355.2944424192424 L 600 356.34837054024854 L 601 357.4066865182137 L 602 358.469288631925 L 603 359.5360747482025 L 604 360.6069423317165 L 605 361.6817884548423 L 606 362.76050980755366 L 607 363.84300270735224 L 608 364.9291631092333 L 609 366.01888661568603 L 610 367.11206848672794 L 611 368.20860364997196 L 612 369.3083867107257 L 613 370.4113119621213 L 614 371.51727339527605 L 615 372.6261647094811 L 616 373.73787932241873 L 617 374.8523103804069 L 618 375.96935076866947 L 619 377.0888931216315 L 620 378.210829833239 L 621 379.33505306730154 L 622 380.4614547678571 L 623 381.5899266695578 L 624 382.72036030807624 L 625 383.85264703053053 L 626 384.9866780059273 L 627 386.12234423562256 L 628 387.2595365637982 L 629 388.3981456879531 L 630 389.5380621694096 L 631 390.6791764438317 L 632 391.82137883175625 L 633 392.96455954913483 L 634 394.108608717886 L 635 395.2534163764559 L 636 396.3988724903877 L 637 397.5448669628976 L 638 398.6912896454567 L 639 399.8380303483785 L 640 400.9849788514093 L 641 402.1320249143228 L 642 403.2790582875153 L 643 404.425968722603 L 644 405.5726459830183 L 645 406.71897985460555 L 646 407.8648601562142 L 647 409.01017675028925 L 648 410.15481955345683 L 649 411.2986785471054 L 650 412.4416437879601 L 651 413.5836054186503 L 652 414.72445367826793 L 653 415.86407891291833 L 654 417.0023715862591 L 655 418.1392222900284 L 656 419.2745217545609 L 657 420.40816085929043 L 658 421.54003064323797 L 659 422.6700223154849 L 660 423.7980272656294 L 661 424.9239370742254 L 662 426.047643523204 L 663 427.1690386062744 L 664 428.2880145393055 L 665 429.40446377068525 L 666 430.51827899165863 L 667 431.62935314664117 L 668 432.7375794435091 L 669 433.84285136386376 L 670 434.9450626732696 L 671 436.044107431465 L 672 437.13988000254517 L 673 438.2322750651149 L 674 439.32118762241214 L 675 440.40651301239967 L 676 441.48814691782485 L 677 442.56598537624603 L 678 443.6399247900253 L 679 444.70986193628573 L 680 445.7756939768327 L 681 446.8373184680385 L 682 447.89463337068855 L 683 448.94753705978917 L 684 449.99592833433553 L 685 451.0397064270382 L 686 452.0787710140092 L 687 453.1130222244041 L 688 454.14236065002166 L 689 455.1666873548583 L 690 456.1859038846176 L 691 457.19991227617317 L 692 458.20861506698475 L 693 459.2119153044657 L 694 460.2097165553018 L 695 461.20192291471994 L 696 462.1884390157063 L 697 463.1691700381725 L 698 464.14402171806944 L 699 465.11290035644754 L 700 466.0757128284627 L 701 467.0323665923271 L 702 467.98276969820415 L 703 468.9268307970458 L 704 469.8644591493734 L 705 470.7955646339987 L 706 471.7200577566862 L 707 472.63784965875476 L 708 473.5488521256187 L 709 474.45297759526613 L 710 475.3501391666756 L 711 476.2402506081685 L 712 477.12322636569695 L 713 477.9989815710676 L 714 478.86743205009833 L 715 479.7284943307088 L 716 480.58208565094367 L 717 481.4281239669273 L 718 482.2665279607491 L 719 483.09721704828024 L 720 483.92011138691834 L 721 484.73513188326217 L 722 485.54220020071335 L 723 486.3412387670062 L 724 487.1321707816633 L 725 487.91492022337764 L 726 488.689411857319 L 727 489.4555712423658 L 728 490.21332473825953 L 729 490.96259951268314 L 730 491.7033235482613 L 731 492.4354256494825 L 732 493.1588354495419 L 733 493.8734834171048 L 734 494.57930086298984 L 735 495.2762199467709 L 736 495.964173683298 L 737 496.64309594913516 L 738 497.3129214889166 L 739 497.973585921618 L 740 498.62502574674534 L 741 499.2671783504379 L 742 499.89998201148643 L 743 500.5233759072658 L 744 501.1373001195808 L 745 501.7416956404254 L 746 502.33650437765425 L 747 502.92166916056647 L 748 503.4971337454003 L 749 504.0628428207395 L 750 504.61874201282933 L 751 505.16477789080284 L 752 505.7008979718165 L 753 506.2270507260946 L 754 506.7431855818819 L 755 507.2492529303049 L 756 507.7452041301395 L 757 508.2309915124864 L 758 508.7065683853531 L 759 509.17188903814133 L 760 509.62690874604084 L 761 510.0715837743282 L 762 510.50587138257015 L 763 510.92972982873204 L 764 511.3431183731895 L 765 511.74599728264445 L 766 512.138327833944 L 767 512.5200723178025 L 768 512.8911940424257 L 769 513.2516573370377 L 770 513.6014275553097 L 771 513.9404710786893 L 772 514.2687553196325 L 773 514.5862487247358 L 774 514.8929207777686 L 775 515.1887420026068 L 776 515.4736839660653 L 777 515.7477192806317 L 778 516.0108216070979 L 779 516.2629656570923 L 780 516.50412719551 L 781 516.7342830428427 L 782 516.9534110774057 L 783 517.1614902374653 L 784 517.3585005232625 L 785 517.5444229989351 L 786 517.7192397943387 L 787 517.882934106763 L 788 518.0354902025476 L 789 518.1768934185945 L 790 518.307130163777 L 791 518.4261879202458 L 792 518.5340552446326 L 793 518.6307217691501 L 794 518.7161782025883 L 795 518.7904163312072 L 796 518.8534290195269 L 797 518.9052102110129 L 798 518.9457549286587 L 799 518.9750592754639 L 800 518.9931204348086 L 801 518.9999366707244 L 802 518.9955073280614 L 803 518.9798328325506 L 804 518.9529146907637 L 805 518.9147554899677 L 806 518.8653588978763 L 807 518.8047296622977 L 808 518.7328736106783 L 809 518.649797649542 L 810 518.555509763827 L 811 518.4500190161177 L 812 518.3333355457743 L 813 518.205470567958 L 814 518.0664363725526 L 815 517.9162463229842 L 816 517.7549148549357 L 817 517.5824574749598 L 818 517.398890758989 L 819 517.2042323507414 L 820 516.9985009600258 L 821 516.7817163609427 L 822 516.5538993899842 L 823 516.3150719440308 L 824 516.0652569782474 L 825 515.804478503876 L 826 515.5327615859288 L 827 515.2501323407786 L 828 514.9566179336484 L 829 514.6522465760007 L 830 514.337047522826 L 831 514.0110510698305 L 832 513.6742885505246 L 833 513.3267923332112 L 834 512.9685958178741 L 835 512.5997334329684 L 836 512.2202406321111 L 837 511.8301538906734 L 838 511.42951070227457 L 839 511.01834957517883 L 840 510.5967100285935 L 841 510.1646325888709 L 842 509.72215878561303 L 843 509.26933114767985 L 844 508.80619319910164 L 845 508.33278945489565 L 846 507.8491654167873 L 847 507.355367568837 L 848 506.85144337297226 L 849 506.3374412644256 L 850 505.81341064707925 L 851 505.27940188871685 L 852 504.735466316182 L 853 504.18165621044506 L 854 503.6180248015781 L 855 503.04462626363863 L 856 502.4615157094627 L 857 501.8687491853673 L 858 501.2663836657639 L 859 500.654477047682 L 860 500.0330881452043 L 861 499.4022766838139 L 862 498.76210329465346 L 863 498.11262950869775 L 864 497.45391775083954 L 865 496.78603133388935 L 866 496.1090344524905 L 867 495.42299217694836 L 868 494.72797044697666 L 869 494.02403606535916 L 870 493.3112566915292 L 871 492.58970083506614 L 872 491.8594378491108 L 873 491.12053792369943 L 874 490.3730720790172 L 875 489.61711215857224 L 876 488.85273082229 L 877 488.0800015395299 L 878 487.29899858202316 L 879 486.50979701673464 L 880 485.7124726986475 L 881 484.9071022634721 L 882 484.09376312028047 L 883 483.2725334440657 L 884 482.4434921682282 L 885 481.6067189769891 L 886 480.76229429773093 L 887 479.9102992932677 L 888 479.0508158540433 L 889 478.18392659026125 L 890 477.3097148239437 L 891 476.4282645809235 L 892 475.53966058276757 L 893 474.6439882386338 L 894 473.74133363706267 L 895 472.8317835377013 L 896 471.9154253629655 L 897 470.9923471896368 L 898 470.0626377403969 L 899 469.1263863752998 L 900 468.18368308318304 L 901 467.2346184730183 L 902 466.27928376520254 L 903 465.31777078278975 L 904 464.350171942666 L 905 463.37658024666604 L 906 462.3970892726348 L 907 461.4117931654327 L 908 460.42078662788714 L 909 459.4241649116897 L 910 458.4220238082411 L 911 457.4144596394442 L 912 456.4015692484457 L 913 455.3834499903281 L 914 454.36019972275216 L 915 453.3319167965514 L 916 452.2987000462789 L 917 451.2606487807077 L 918 450.2178627732855 L 919 449.17044225254523 L 920 448.1184878924709 L 921 447.0621008028218 L 922 446.0013825194137 L 923 444.93643499436 L 924 443.86736058627235 L 925 442.79426205042216 L 926 441.7172425288646 L 927 440.6364055405245 L 928 439.5518549712469 L 929 438.4636950638117 L 930 437.3720304079144 L 931 436.27696593011314 L 932 435.1786068837439 L 933 434.07705883880374 L 934 432.97242767180364 L 935 431.8648195555926 L 936 430.75434094915204 L 937 429.64109858736407 L 938 428.525199470752 L 939 427.40675085519604 L 940 426.28586024162456 L 941 425.16263536568096 L 942 424.0371841873691 L 943 422.90961488067626 L 944 421.78003582317575 L 945 420.648555585611 L 946 419.5152829214588 L 947 418.3803267564772 L 948 417.24379617823575 L 949 416.10580042563066 L 950 414.9664488783849 L 951 413.825851046535 L 952 412.68411655990565 L 953 411.54135515757247 L 954 410.3976766773141 L 955 409.2531910450551 L 956 408.1080082643004 L 957 406.9622384055621 L 958 405.81599159578013 L 959 404.6693780077368 L 960 403.52250784946784 L 961 402.37549135366964 L 962 401.22843876710385 L 963 400.08146034000106 L 964 398.9346663154639 L 965 397.78816691887107 L 966 396.6420723472825 L 967 395.4964927588483 L 968 394.3515382622201 L 969 393.2073189059683 L 970 392.0639446680044 L 971 390.9215254450104 L 972 389.780171041876 L 973 388.6399911611446 L 974 387.50109539246904 L 975 386.36359320207833 L 976 385.2275939222562 L 977 384.0932067408322 L 978 382.9605406906877 L 979 381.8297046392753 L 980 380.70080727815525 L 981 379.57395711254867 L 982 378.44926245090795 L 983 377.326831394507 L 984 376.2067718270507 L 985 375.0891914043058 L 986 373.97419754375306 L 987 372.8618974142631 L 988 371.75239792579566 L 989 370.64580571912364 L 990 369.5422271555834 L 991 368.4417683068516 L 992 367.34453494475 L 993 366.2506325310793 L 994 365.16016620748235 L 995 364.07324078533804 L 996 362.9899607356884 L 997 361.9104301791957 L 998 360.83475287613584 L 999 359.76303221642485 L 1000 358.6953712096817 L 1001 357.6318724753273 L 1002 356.5726382327212 L 1003 355.51777029133643 L 1004 354.46737004097423 L 1005 353.4215384420189 L 1006 352.3803760157335 L 1007 351.34398283459853 L 1008 350.31245851269324 L 1009 349.28590219612096 L 1010 348.26441255347976 L 1011 347.2480877663787 L 1012 346.2370255200011 L 1013 345.23132299371525 L 1014 344.23107685173403 L 1015 343.23638323382386 L 1016 342.2473377460643 L 1017 341.26403545165846 L 1018 340.2865708617961 L 1019 339.31503792656963 L 1020 338.34953002594375 L 1021 337.39013996078035 L 1022 336.43695994391885 L 1023 335.4900815913129 L 1024 334.5495959132248 L 1025 333.6155933054777 L 1026 332.68816354076745 L 1027 331.76739576003365 L 1028 330.853378463892 L 1029 329.94619950412795 L 1030 329.04594607525246 L 1031 328.1527047061217 L 1032 327.2665612516198 L 1033 326.3876008844069 L 1034 325.51590808673274 L 1035 324.65156664231677 L 1036 323.79465962829477 L 1037 322.94526940723404 L 1038 322.103477619217 L 1039 321.2693651739944 L 1040 320.44301224320816 L 1041 319.6244982526862 L 1042 318.8139018748077 L 1043 318.0113010209419 L 1044 317.2167728339594 L 1045 316.43039368081736 L 1046 315.65223914521954 L 1047 314.88238402035176 L 1048 314.1209023016924 L 1049 313.36786717990077 L 1050 312.62335103378217 L 1051 311.8874254233311 L 1052 311.1601610828531 L 1053 310.4416279141664 L 1054 309.7318949798828 L 1055 309.03103049676974 L 1056 308.3391018291938 L 1057 307.6561754826457 L 1058 306.9823170973482 L 1059 306.31759144194666 L 1060 305.6620624072842 L 1061 305.0157930002605 L 1062 304.3788453377758 L 1063 303.75128064076057 L 1064 303.1331592282912 L 1065 302.5245405117923 L 1066 301.92548298932627 L 1067 301.3360442399709 L 1068 300.75628091828463 L 1069 300.18624874886183 L 1070 299.6260025209761 L 1071 299.0755960833146 L 1072 298.53508233880206 L 1073 298.004513239516 L 1074 297.4839397816935 L 1075 296.9734120008293 L 1076 296.4729789668669 L 1077 295.9826887794819 L 1078 295.5025885634592 L 1079 295.0327244641629 L 1080 294.57314164310185 L 1081 294.1238842735881 L 1082 293.6849955364916 L 1083 293.2565176160898 L 1084 292.8384916960129 L 1085 292.43095795528535 L 1086 292.03395556446446 L 1087 291.6475226818749 L 1088 291.2716964499414 L 1089 290.9065129916188 L 1090 290.55200740692 L 1091 290.20821376954206 L 1092 289.8751651235915 L 1093 289.552893480408 L 1094 289.24142981548766 L 1095 288.9408040655059 L 1096 288.65104512543985 L 1097 288.37218084579104 L 1098 288.10423802990886 L 1099 287.84724243141403 L 1100 287.60121875172325 L 1101 287.36619063767523 L 1102 287.14218067925754 L 1103 286.9292104074356 L 1104 286.72730029208316 L 1105 286.5364697400147 L 1106 286.3567370931202 L 1107 286.18811962660226 L 1108 286.0306335473155 L 1109 285.884293992209 L 1110 285.7491150268712 L 1111 285.6251096441783 L 1112 285.512289763045 L 1113 285.4106662272792 L 1114 285.3202488045397 L 1115 285.24104618539724 L 1116 285.1730659824994 L 1117 285.1163147298387 L 1118 285.0707978821247 L 1119 285.0365198142596 L 1120 285.0134838209179 L 1121 285.0016921162297 L 1122 285.0011458335677 L 1123 285.0118450254385 L 1124 285.03378866347737 L 1125 285.06697463854726 L 1126 285.11139976094137 L 1127 285.1670597606899 L 1128 285.2339492879702 L 1129 285.3120619136212 L 1130 285.4013901297614 L 1131 285.5019253505103 L 1132 285.6136579128137 L 1133 285.7365770773726 L 1134 285.87067102967524 L 1135 286.0159268811327 L 1136 286.172330670318 L 1137 286.3398673643075 L 1138 286.5185208601262 L 1139 286.70827398629535 L 1140 286.909108504483 L 1141 287.12100511125675 L 1142 287.3439434399395 L 1143 287.57790206256664 L 1144 287.82285849194596 L 1145 288.0787891838187 L 1146 288.3456695391228 L 1147 288.6234739063571 L 1148 288.9121755840471 L 1149 289.21174682331093 L 1150 289.52215883052696 L 1151 289.84338177010113 L 1152 290.17538476733466 L 1153 290.5181359113915 L 1154 290.87160225836544 L 1155 291.235749834447 L 1156 291.6105436391883 L 1157 291.99594764886734 L 1158 292.3919248199507 L 1159 292.79843709265367 L 1160 293.21544539459865 L 1161 293.6429096445706 L 1162 294.0807887563693 L 1163 294.5290406427588 L 1164 294.98762221951205 L 1165 295.4564894095527 L 1166 295.9355971471912 L 1167 296.42489938245626 L 1168 296.9243490855213 L 1169 297.43389825122466 L 1170 297.9534979036835 L 1171 298.48309810100136 L 1172 299.0226479400684 L 1173 299.57209556145386 L 1174 300.13138815439066 L 1175 300.7004719618514 L 1176 301.2792922857153 L 1177 301.8677934920253 L 1178 302.46591901633593 L 1179 303.07361136914943 L 1180 303.6908121414418 L 1181 304.3174620102769 L 1182 304.95350074450806 L 1183 305.59886721056745 L 1184 306.25349937834187 L 1185 306.91733432713517 L 1186 307.59030825171544 L 1187 308.2723564684481 L 1188 308.9634134215129 L 1189 309.663412689205 L 1190 310.37228699031897 L 1191 311.0899681906157 L 1192 311.81638730937135 L 1193 312.5514745260072 L 1194 313.29515918680073 L 1195 314.0473698116766 L 1196 314.80803410107706 L 1197 315.57707894291076 L 1198 316.3544304195805 L 1199 317.1400138150878 L 1200 317.93375362221354 L 1201 318.7355735497768 L 1202 319.5453965299665 L 1203 320.3631447257495 L 1204 321.1887395383516 L 1205 322.0221016148125 L 1206 322.8631508556126 L 1207 323.71180642237204 L 1208 324.56798674562043 L 1209 325.43160953263725 L 1210 326.30259177536107 L 1211 327.1808497583685 L 1212 328.06629906692007 L 1213 328.95885459507423 L 1214 329.85843055386727 L 1215 330.7649404795588 L 1216 331.6782972419428 L 1217 332.59841305272175 L 1218 333.5251994739448 L 1219 334.45856742650795 L 1220 335.39842719871604 L 1221 336.3446884549055 L 1222 337.2972602441269 L 1223 338.2560510088871 L 1224 339.2209685939491 L 1225 340.1919202551899 L 1226 341.16881266851453 L 1227 342.15155193882595 L 1228 343.1400436090501 L 1229 344.13419266921466 L 1230 345.13390356558085 L 1231 346.13908020982797 L 1232 347.1496259882889 L 1233 348.1654437712362 L 1234 349.1864359222178 L 1235 350.21250430744163 L 1236 351.24355030520775 L 1237 352.27947481538735 L 1238 353.3201782689481 L 1239 354.36556063752414 L 1240 355.4155214430307 L 1241 356.4699597673212 L 1242 357.5287742618876 L 1243 358.5918631576012 L 1244 359.65912427449473 L 1245 360.7304550315831 L 1246 361.8057524567233 L 1247 362.88491319651166 L 1248 363.9678335262176 L 1249 365.0544093597535 L 1250 366.1445362596791 L 1251 367.2381094472389 L 1252 368.33502381243426 L 1253 369.43517392412525 L 1254 370.53845404016465 L 1255 371.6447581175614 L 1256 372.75397982267305 L 1257 373.8660125414261 L 1258 374.98074938956336 L 1259 376.09808322291724 L 1260 377.21790664770805 L 1261 378.34011203086635 L 1262 379.464591510378 L 1263 380.5912370056516 L 1264 381.71994022790676 L 1265 382.8505926905824 L 1266 383.983085719764 L 1267 385.117310464629 L 1268 386.253157907909 L 1269 387.3905188763682 L 1270 388.52928405129666 L 1271 389.66934397901747 L 1272 390.8105890814073 L 1273 391.95290966642824 L 1274 393.09619593867137 L 1275 394.2403380099095 L 1276 395.38522590965954 L 1277 396.5307495957521 L 1278 397.6767989649086 L 1279 398.8232638633238 L 1280 399.9700340972534 L 1281 401.1169994436055 L 1282 402.2640496605346 L 1283 403.411074498038 L 1284 404.55796370855217 L 1285 405.7046070575496 L 1286 406.85089433413407 L 1287 407.9967153616336 L 1288 409.1419600081902 L 1289 410.2865181973456 L 1290 411.4302799186208 L 1291 412.57313523809046 L 1292 413.714974308949 L 1293 414.85568738206865 L 1294 415.99516481654825 L 1295 417.13329709025123 L 1296 418.2699748103328 L 1297 419.40508872375426 L 1298 420.5385297277838 L 1299 421.670188880483 L 1300 422.79995741117847 L 1301 423.9277267309159 L 1302 425.05338844289685 L 1303 426.17683435289854 L 1304 427.29795647967234 L 1305 428.4166470653225 L 1306 429.5327985856636 L 1307 430.64630376055527 L 1308 431.7570555642136 L 1309 432.86494723549794 L 1310 433.9698722881725 L 1311 435.07172452114133 L 1312 436.1703980286559 L 1313 437.2657872104944 L 1314 438.35778678211176 L 1315 439.4462917847588 L 1316 440.53119759557086 L 1317 441.6123999376237 L 1318 442.68979488995586 L 1319 443.7632788975575 L 1320 444.8327487813235 L 1321 445.8981017479708 L 1322 446.9592353999184 L 1323 448.0160477451291 L 1324 449.0684372069133 L 1325 450.11630263369153 L 1326 451.159543308717 L 1327 452.198058959756 L 1328 453.2317497687259 L 1329 454.2605163812888 L 1330 455.2842599164019 L 1331 456.30288197582047 L 1332 457.3162846535565 L 1333 458.3243705452885 L 1334 459.3270427577238 L 1335 460.32420491791146 L 1336 461.3157611825053 L 1337 462.3016162469761 L 1338 463.2816753547718 L 1339 464.255844306425 L 1340 465.22402946860734 L 1341 466.18613778312897 L 1342 467.1420767758829 L 1343 468.09175456573354 L 1344 469.03507987334757 L 1345 469.9719620299676 L 1346 470.90231098612685 L 1347 471.8260373203043 L 1348 472.7430522475197 L 1349 473.65326762786697 L 1350 474.55659597498607 L 1351 475.45295046447177 L 1352 476.3422449422192 L 1353 477.22439393270366 L 1354 478.0993126471975 L 1355 478.96691699191877 L 1356 479.82712357611433 L 1357 480.67984972007514 L 1358 481.52501346308276 L 1359 482.3625335712874 L 1360 483.1923295455156 L 1361 484.01432162900767 L 1362 484.82843081508366 L 1363 485.6345788547368 L 1364 486.4326882641549 L 1365 487.2226823321675 L 1366 488.0044851276193 L 1367 488.77802150666815 L 1368 489.5432171200077 L 1369 490.29999842001354 L 1370 491.04829266781235 L 1371 491.7880279402731 L 1372 492.51913313692035 L 1373 493.24153798676787 L 1374 493.9551730550729 L 1375 494.65996975000996 L 1376 495.35586032926363 L 1377 496.04277790653964 L 1378 496.72065645799375 L 1379 497.3894308285778 L 1380 498.0490367383019 L 1381 498.69941078841305 L 1382 499.34049046748873 L 1383 499.97221415744497 L 1384 500.5945211394593 L 1385 501.20735159980643 L 1386 501.81064663560744 L 1387 502.4043482604915 L 1388 502.98839941016877 L 1389 503.5627439479159 L 1390 504.127326669971 L 1391 504.6820933108401 L 1392 505.22699054851273 L 1393 505.7619660095869 L 1394 506.2869682743034 L 1395 506.8019468814876 L 1396 507.3068523334 L 1397 507.8016361004935 L 1398 508.286250626078 L 1399 508.76064933089134 L 1400 509.2247866175762 L 1401 509.67861787506286 L 1402 510.12209948285715 L 1403 510.5551888152328 L 1404 510.9778442453286 L 1405 511.39002514914944 L 1406 511.79169190947107 L 1407 512.1828059196476 L 1408 512.5633295873225 L 1409 512.9332263380418 L 1410 513.2924606187693 L 1411 513.640997901304 L 1412 513.9788046855987 L 1413 514.3058485029799 L 1414 514.6220979192688 L 1415 514.9275225378021 L 1416 515.2220930023542 L 1417 515.5057809999585 L 1418 515.7785592636285 L 1419 516.0404015749792 L 1420 516.2912827667468 L 1421 516.5311787252074 L 1422 516.760066392495 L 1423 516.9779237688177 L 1424 517.1847299145727 L 1425 517.3804649523579 L 1426 517.5651100688831 L 1427 517.7386475167784 L 1428 517.9010606162998 L 1429 518.0523337569321 L 1430 518.1924523988897 L 1431 518.3214030745141 L 1432 518.4391733895683 L 1433 518.5457520244279 L 1434 518.6411287351691 L 1435 518.7252943545539 L 1436 518.7982407929103 L 1437 518.8599610389108 L 1438 518.9104491602452 L 1439 518.9497003041921 L 1440 518.9777106980841 L 1441 518.9944776496714 L 1442 518.9999995473795 L 1443 518.9942758604652 L 1444 518.9773071390672 L 1445 518.9490950141528 L 1446 518.9096421973617 L 1447 518.8589524807451 L 1448 518.7970307364012 L 1449 518.7238829160073 L 1450 518.639516050247 L 1451 518.5439382481352 L 1452 518.4371586962383 L 1453 518.3191876577912 L 1454 518.1900364717111 L 1455 518.0497175515072 L 1456 517.8982443840883 L 1457 517.7356315284655 L 1458 517.5618946143538 L 1459 517.3770503406693 L 1460 517.1811164739239 L 1461 516.9741118465186 L 1462 516.7560563549325 L 1463 516.526970957811 L 1464 516.2868776739507 L 1465 516.0357995801837 L 1466 515.7737608091594 L 1467 515.5007865470245 L 1468 515.216903031003 L 1469 514.9221375468733 L 1470 514.6165184263467 L 1471 514.3000750443439 L 1472 513.9728378161709 L 1473 513.6348381945968 L 1474 513.2861086668298 L 1475 512.9266827513949 L 1476 512.5565949949122 L 1477 512.1758809687767 L 1478 511.7845772657389 L 1479 511.38272149638794 L 1480 510.97035228553636 L 1481 510.5475092685079 L 1482 510.11423308732776 L 1483 509.6705653868163 L 1484 509.21654881058623 L 1485 508.75222699694393 L 1486 508.27764457469516 L 1487 507.79284715885535 L 1488 507.2978813462654 L 1489 506.79279471111295 L 1490 506.2776358003597 L 1491 505.7524541290752 L 1492 505.217300175678 L 1493 504.67222537708324 L 1494 504.1172821237594 L 1495 503.55252375469223 L 1496 502.9780045522583 L 1497 502.3937797370074 L 1498 501.7999054623552 L 1499 501.1964388091857 L 1500 500.5834377803651 L 1501 499.9609612951666 L 1502 499.3290691836076 L 1503 498.6878221806985 L 1504 498.0372819206058 L 1505 497.3775109307273 L 1506 496.7085726256832 L 1507 496.03053130122 L 1508 495.3434521280309 L 1509 494.64740114549215 L 1510 493.9424452553154 L 1511 493.2286522151172 L 1512 492.5060906319068 L 1513 491.77482995549144 L 1514 491.0349404718015 L 1515 490.28649329613467 L 1516 489.52956036632077 L 1517 488.76421443580716 L 1518 487.99052906666617 L 1519 487.2085786225245 L 1520 486.41843826141564 L 1521 485.6201839285562 L 1522 484.8138923490459 L 1523 483.99964102049364 L 1524 483.1775082055681 L 1525 482.347572924476 L 1526 481.5099149473667 L 1527 480.66461478666497 L 1528 479.81175368933253 L 1529 478.95141362905895 L 1530 478.08367729838267 L 1531 477.2086281007427 L 1532 476.3263501424625 L 1533 475.4369282246658 L 1534 474.540447835126 L 1535 473.63699514004907 L 1536 472.72665697579225 L 1537 471.80952084051705 L 1538 470.8856748857795 L 1539 469.95520790805745" stroke-linecap="round" stroke-linejoin="round" stroke-miterlimit="10" stroke-width="55"/></g></svg>