<svg version="1.1" xmlns="http://www.w3.org/2000/svg" xmlns:xlink="http://www.w3.org/1999/xlink" width="1560" height="804"><defs/><g><path fill="none" stroke="#02063B" paint-order="fill stroke markers" d=" M 20 447.284759769358 L 21 449.3072676638688 L 22 451.29522158609257 L 23 453.24716950322056 L 24 455.16168568179654 L 25 457.0373717290947 L 26 458.8728576145278 L 27 460.66680267033905 L 28 462.41789657084695 L 29 464.1248602895277 L 30 465.7864470332363 L 31 467.401443152884 L 32 468.96866902990644 L 33 470.48697993787584 L 34 471.9552668786271 L 35 473.3724573922874 L 36 474.7375163406179 L 37 476.0494466630949 L 38 477.3072901051786 L 39 478.5101279182372 L 40 479.6570815306154 L 41 480.74731318935704 L 42 481.7800265721129 L 43 482.7544673687869 L 44 483.66992383249664 L 45 484.5257272994438 L 46 485.3212526773173 L 47 486.0559189018702 L 48 486.7291893613382 L 49 487.3405722883893 L 50 487.8896211193187 L 51 488.37593482022555 L 52 488.79915817993464 L 53 489.15898206944814 L 54 489.45514366773824 L 55 489.68742665371605 L 56 489.85566136423546 L 57 489.9597249180182 L 58 489.999541305408 L 59 489.9750814438893 L 60 489.88636319932965 L 61 489.7334513729302 L 62 489.51645765389355 L 63 489.2355405378449 L 64 488.89090521106357 L 65 488.48280340061217 L 66 488.0115331904712 L 67 487.47743880381364 L 68 486.8809103515791 L 69 486.2223835475303 L 70 485.50233939000157 L 71 484.7213038105693 L 72 483.8798472899038 L 73 482.9785844410812 L 74 482.01817356066 L 75 480.99931614785135 L 76 479.92275639213284 L 77 478.78928062968066 L 78 477.59971676901756 L 79 476.3549336862952 L 80 475.05584059065353 L 81 473.70338636011996 L 82 472.29855884853407 L 83 470.84238416400353 L 84 469.33592591941874 L 85 467.7802844555731 L 86 466.1765960374569 L 87 464.52603202431123 L 88 462.8297980140493 L 89 461.0891329626683 L 90 459.3053082792965 L 91 457.4796268975364 L 92 455.61342232378104 L 93 453.7080576632002 L 94 451.76492462410704 L 95 449.78544250143227 L 96 447.771057140049 L 97 445.7232398787047 L 98 443.6434864753324 L 99 441.53331601452555 L 100 439.3942697979746 L 101 437.22791021867613 L 102 435.03581961973657 L 103 432.81959913860356 L 104 430.5808675375703 L 105 428.32126002140603 L 106 426.04242704297656 L 107 423.7460330977278 L 108 421.4337555079119 L 109 419.10728319744493 L 110 416.76831545829015 L 111 414.4185607092683 L 112 412.0597352482019 L 113 409.69356199830423 L 114 407.32176924972885 L 115 404.9460893971999 L 116 402.568257674643 L 117 400.19001088774377 L 118 397.81308614535726 L 119 395.43921959069627 L 120 393.0701451332255 L 121 390.7075931821862 L 122 388.35328938267844 L 123 386.00895335522284 L 124 383.6762974397223 L 125 381.3570254447425 L 126 379.05283140302294 L 127 376.7653983341289 L 128 374.49639701514775 L 129 372.24748476032653 L 130 370.0203042105441 L 131 367.8164821335002 L 132 365.63762823549854 L 133 363.48533398569236 L 134 361.36117145365023 L 135 359.26669216109144 L 136 357.2034259486304 L 137 355.1728798583571 L 138 353.1765370330695 L 139 351.21585563296304 L 140 349.29226777056726 L 141 347.4071784647086 L 142 345.5619646142621 L 143 343.75797399244317 L 144 341.9965242623729 L 145 340.27890201463566 L 146 338.60636182753376 L 147 336.98012535072337 L 148 335.4013804129023 L 149 333.87128015420166 L 150 332.39094218391364 L 151 330.9614477641727 L 152 329.58384102018397 L 153 328.25912817757853 L 154 326.9882768274499 L 155 325.77221521961053 L 156 324.61183158458334 L 157 323.5079734848243 L 158 322.46144719564944 L 159 321.4730171163188 L 160 320.54340521170695 L 161 319.6732904849688 L 162 318.8633084815848 L 163 318.11405082514835 L 164 317.4260647852352 L 165 316.7998528776685 L 166 316.2358724974739 L 167 315.73453558479054 L 168 315.2962083239838 L 169 314.9212108761784 L 170 314.60981714540765 L 171 314.36225457854977 L 172 314.17870399919684 L 173 314.05929947557877 L 174 314.0041282226373 L 175 314.01323053832334 L 176 314.0865997741623 L 177 314.2241823401105 L 178 314.42587774369804 L 179 314.6915386634302 L 180 315.02097105639325 L 181 315.4139342999864 L 182 315.87014136767664 L 183 316.38925903864697 L 184 316.97090814118667 L 185 317.6146638296438 L 186 318.3200558947394 L 187 319.08656910701563 L 188 319.91364359316754 L 189 320.8006752449833 L 190 321.7470161605945 L 191 322.75197511771347 L 192 323.8148180785134 L 193 324.9347687257806 L 194 326.1110090299493 L 195 327.342679846603 L 196 328.6288815440072 L 197 329.96867466021433 L 198 331.361080589262 L 199 332.80508229596154 L 200 334.2996250587572 L 201 335.84361724011086 L 202 337.4359310838514 L 203 339.0754035389055 L 204 340.7608371088086 L 205 342.4910007263751 L 206 344.26463065288885 L 207 346.0804314011584 L 208 347.9370766817607 L 209 349.8332103717838 L 210 351.7674475053609 L 211 353.7383752852704 L 212 355.7445541148659 L 213 357.7845186495795 L 214 359.8567788672334 L 215 361.9598211563748 L 216 364.092109421842 L 217 366.252086206752 L 218 368.43817383009196 L 219 370.6487755390819 L 220 372.8822766754681 L 221 375.13704585489523 L 222 377.41143615849455 L 223 379.70378633581964 L 224 382.0124220182501 L 225 384.33565694197625 L 226 386.67179417967316 L 227 389.0191273799628 L 228 391.37594201375987 L 229 393.74051662659105 L 230 396.1111240959722 L 231 398.48603289292606 L 232 400.86350834671794 L 233 403.24181391188654 L 234 405.6192124366443 L 235 407.9939674317203 L 236 410.3643443387189 L 237 412.72861179706945 L 238 415.0850429086381 L 239 417.4319164990823 L 240 419.76751837502303 L 241 422.0901425761188 L 242 424.3980926211262 L 243 426.6896827470359 L 244 428.96323914038084 L 245 431.21710115981597 L 246 433.4496225490764 L 247 435.65917263942947 L 248 437.84413754074035 L 249 440.00292132028284 L 250 442.13394716843385 L 251 444.2356585504001 L 252 446.30652034313516 L 253 448.34501995661793 L 254 450.34966843867204 L 255 452.31900156251965 L 256 454.25158089627604 L 257 456.1459948536029 L 258 458.0008597247529 L 259 459.8148206872534 L 260 461.58655279548987 L 261 463.314761948467 L 262 464.9981858350403 L 263 466.6355948559286 L 264 468.2257930218321 L 265 469.76761882700174 L 266 471.25994609762176 L 267 472.7016848143843 L 268 474.091781908657 L 269 475.4292220316606 L 270 476.7130282960957 L 271 477.9422629896768 L 272 479.116028260052 L 273 480.2334667706084 L 274 481.29376232668426 L 275 482.2961404717306 L 276 483.23986905298614 L 277 484.1242587562535 L 278 484.94866360938477 L 279 485.7124814541102 L 280 486.4151543858638 L 281 487.0561691612853 L 282 487.63505757310185 L 283 488.1513967921135 L 284 488.6048096760342 L 285 488.99496504496307 L 286 489.32157792328275 L 287 489.58440974781035 L 288 489.7832685420477 L 289 489.9180090564043 L 290 489.98853287428926 L 291 489.994788483997 L 292 489.93677131633183 L 293 489.81452374794526 L 294 489.62813507038396 L 295 489.3777414248692 L 296 489.0635257028576 L 297 488.685717412454 L 298 488.2445925107754 L 299 487.7404732023874 L 300 487.17372770396105 L 301 486.5447699753213 L 302 485.8540594170846 L 303 485.1021005351052 L 304 484.2894425719764 L 305 483.41667910585477 L 306 482.4844476169017 L 307 481.4934290216576 L 308 480.4443471756898 L 309 479.33796834487725 L 310 478.1751006457174 L 311 476.956593455066 L 312 475.6833367897381 L 313 474.35626065642595 L 314 472.976334372408 L 315 471.5445658575436 L 316 470.0620008980731 L 317 468.52972238275845 L 318 466.9488495119252 L 319 465.32053697997975 L 320 463.6459741320034 L 321 461.9263840950358 L 322 460.16302288468313 L 323 458.35717848770537 L 324 456.51016992125 L 325 454.62334626942095 L 326 452.69808569788734 L 327 450.7357944472482 L 328 448.7379058058936 L 329 446.70587906310715 L 330 444.6411984431786 L 331 442.54537202130365 L 332 440.41993062206086 L 333 438.26642670127455 L 334 436.08643321207586 L 335 433.88154245599316 L 336 431.6533649199105 L 337 429.4035280997417 L 338 427.133675311683 L 339 424.8454644919079 L 340 422.5405669855848 L 341 420.2206663261011 L 342 417.8874570053824 L 343 415.54264323621044 L 344 413.1879377074382 L 345 410.82506033301536 L 346 408.45573699573674 L 347 406.08169828662903 L 348 403.7046782409015 L 349 401.3264130713779 L 350 398.9486399003401 L 351 396.57309549070686 L 352 394.20151497747423 L 353 391.83563060034635 L 354 389.4771704384794 L 355 387.1278571482666 L 356 384.7894067050819 L 357 382.46352714990485 L 358 380.1519173417411 L 359 377.8562657167482 L 360 375.57824905497637 L 361 373.31953125562063 L 362 371.0817621216837 L 363 368.86657615493385 L 364 366.6755913620385 L 365 364.51040807274745 L 366 362.3726077709862 L 367 360.2637519397154 L 368 358.1853809203999 L 369 356.13901278791764 L 370 354.12614224173547 L 371 352.1482395141559 L 372 350.2067492964368 L 373 348.3030896835666 L 374 346.4386511384646 L 375 344.61479547636566 L 376 342.8328548701285 L 377 341.09413087719577 L 378 339.3998934889164 L 379 337.7513802029233 L 380 336.1497951192464 L 381 334.5963080608183 L 382 333.0920537190175 L 383 331.6381308248724 L 384 330.23560134653 L 385 328.88548971357864 L 386 327.58878206878757 L 387 326.34642554781345 L 388 325.15932758739746 L 389 324.02835526255876 L 390 322.95433465327005 L 391 321.93805024107496 L 392 320.980244336091 L 393 320.08161653481426 L 394 319.2428232091231 L 395 318.4644770268542 L 396 317.74714650429974 L 397 317.09135559095466 L 398 316.4975832868155 L 399 315.9662632925111 L 400 315.4977836925214 L 401 315.0924866717137 L 402 314.7506682654061 L 403 314.4725781431381 L 404 314.2584194263085 L 405 314.1083485398121 L 406 314.0224750977844 L 407 314.0008618235381 L 408 314.04352450374853 L 409 314.15043197692313 L 410 314.32150615616223 L 411 314.55662208619486 L 412 314.8556080346481 L 413 315.2182456174832 L 414 315.64426995850664 L 415 316.13336988283965 L 416 316.6851881442057 L 417 317.2993216858684 L 418 317.9753219350306 L 419 318.7126951304791 L 420 319.5109026832356 L 421 320.36936156995046 L 422 321.2874447587519 L 423 322.2644816672406 L 424 323.2997586522932 L 425 324.39251953131804 L 426 325.54196613458396 L 427 326.7472588882147 L 428 328.0075174274279 L 429 329.3218212395668 L 430 330.6892103364574 L 431 332.108685955599 L 432 333.57921128967564 L 433 335.0997122438569 L 434 336.6690782203334 L 435 338.286162929515 L 436 339.949785227299 L 437 341.65872997779553 L 438 343.4117489408832 L 439 345.2075616839419 L 440 347.04485651710206 L 441 348.9222914513232 L 442 350.83849517860335 L 443 352.7920680736048 L 444 354.78158321596175 L 445 356.8055874325257 L 446 358.8626023587864 L 447 360.9511255186913 L 448 363.0696314220792 L 449 365.2165726789211 L 450 367.3903811295588 L 451 369.58946899011335 L 452 371.81223001222685 L 453 374.0570406562924 L 454 376.3222612773119 L 455 378.6062373225195 L 456 380.9073005398928 L 457 383.22377019666925 L 458 385.55395430698167 L 459 387.8961508677095 L 460 390.24864910165 L 461 392.60973070709633 L 462 394.97767111291165 L 463 397.350740738184 L 464 399.7272062555384 L 465 402.10533185718737 L 466 404.48338052279115 L 467 406.8596152882058 L 468 409.2323005141886 L 469 411.5997031541357 L 470 413.9600940199279 L 471 416.3117490449555 L 472 418.65295054340453 L 473 420.98198846488157 L 474 423.29716164346036 L 475 425.5967790402417 L 476 427.8791609785133 L 477 430.14264037061344 L 478 432.3855639355972 L 479 434.6062934068188 L 480 436.80320672854805 L 481 438.97469924074437 L 482 441.1191848511267 L 483 443.23509719367974 L 484 445.3208907727519 L 485 447.37504209191087 L 486 449.3960507667278 L 487 451.38244062068304 L 488 453.33276076338814 L 489 455.2455866503386 L 490 457.1195211234245 L 491 458.95319543143563 L 492 460.74527022982 L 493 462.49443655896164 L 494 464.199416800265 L 495 465.8589656093484 L 496 467.4718708256622 L 497 469.0369543578711 L 498 470.55307304434956 L 499 472.01911948816536 L 500 473.4340228659401 L 501 474.79674970999474 L 502 476.1063046632115 L 503 477.36173120605736 L 504 478.5621123552419 L 505 479.70657133349584 L 506 480.79427220998275 L 507 481.8244205108767 L 508 482.79626379965777 L 509 483.7090922267041 L 510 484.56223904777687 L 511 485.35508111102075 L 512 486.087039312124 L 513 486.7575790173052 L 514 487.36621045381844 L 515 487.91248906769073 L 516 488.3960158484313 L 517 488.8164376204753 L 518 489.1734473011486 L 519 489.4667841249658 L 520 489.69623383409765 L 521 489.86162883486804 L 522 489.9628483201674 L 523 489.99981835769177 L 524 489.97251194394426 L 525 489.88094902395903 L 526 489.7251964767328 L 527 489.50536806637535 L 528 489.22162435901504 L 529 488.8741726055179 L 530 488.46326659010896 L 531 487.98920644500413 L 532 487.45233843118865 L 533 486.85305468550314 L 534 486.19179293421996 L 535 485.4690361733218 L 536 484.6853123157134 L 537 483.8411938056257 L 538 482.9372972004936 L 539 481.97428272061273 L 540 480.95285376690435 L 541 479.8737564071398 L 542 478.73777883100115 L 543 477.5457507743754 L 544 476.2985429133015 L 545 474.99706622801574 L 546 473.6422713375569 L 547 472.2351478054193 L 548 470.77672341676026 L 549 469.2680634276893 L 550 467.7102697871888 L 551 466.1044803322326 L 552 464.45186795669207 L 553 462.75363975463677 L 554 461.01103613865257 L 555 459.2253299338263 L 556 457.3978254480529 L 557 455.5298575193493 L 558 453.62279054086775 L 559 451.6780174643209 L 560 449.69695878254885 L 561 447.6810614919681 L 562 445.6317980356629 L 563 443.55066522789 L 564 441.43918316078134 L 565 439.29889409404547 L 566 437.1313613284762 L 567 434.9381680640935 L 568 432.72091624374946 L 569 430.4812253830434 L 570 428.22073138740313 L 571 425.94108535719295 L 572 423.6439523817243 L 573 421.33101032304916 L 574 419.00394859042166 L 575 416.66446690632847 L 576 414.3142740649837 L 577 411.95508668419956 L 578 409.58862795154096 L 579 407.21662636568266 L 580 404.84081447388695 L 581 402.4629276065228 L 582 400.08470260955465 L 583 397.7078765759217 L 584 395.3341855767384 L 585 392.965363393241 L 586 390.60314025040566 L 587 388.24924155316614 L 588 385.9053866261497 L 589 383.5732874578559 L 590 381.2546474501937 L 591 378.95116017428893 L 592 376.66450813347427 L 593 374.39636153436146 L 594 372.14837706689735 L 595 369.92219669428965 L 596 367.7194464536932 L 597 365.5417352685256 L 598 363.39065377328495 L 599 361.2677731517242 L 600 359.17464398923534 L 601 357.11279514027683 L 602 355.08373261167355 L 603 353.0889384626069 L 604 351.1298697220952 L 605 349.2079573247555 L 606 347.3246050656284 L 607 345.4811885748228 L 608 343.6790543127346 L 609 341.9195185865699 L 610 340.203866588895 L 611 338.53335145891066 L 612 336.909193367139 L 613 335.33257862419305 L 614 333.8046588142762 L 615 332.32654995404624 L 616 330.8993316774606 L 617 329.5240464471939 L 618 328.20169879320713 L 619 326.93325457902256 L 620 325.71964029624274 L 621 324.56174238782614 L 622 323.46040660061453 L 623 322.41643736758743 L 624 321.430597220291 L 625 320.5036062318724 L 626 319.6361414911283 L 627 318.82883660794755 L 628 318.08228125051323 L 629 317.39702071459897 L 630 316.77355552527723 L 631 316.21234107132733 L 632 315.7137872726123 L 633 315.2782582806675 L 634 314.90607221271796 L 635 314.59750091932096 L 636 314.352769785802 L 637 314.17205756762985 L 638 314.0554962598506 L 639 314.0031710006766 L 640 314.01512000930006 L 641 314.0913345579771 L 642 314.23175897840287 L 643 314.4362907023723 L 644 314.7047803366974 L 645 315.037031772327 L 646 315.4328023275873 L 647 315.8918029254405 L 648 316.41369830463145 L 649 316.9981072645675 L 650 317.6446029437535 L 651 318.3527131315781 L 652 319.1219206132241 L 653 319.95166354744964 L 654 320.8413358769666 L 655 321.79028777111364 L 656 322.79782610050387 L 657 323.86321494329604 L 658 324.98567612272427 L 659 326.1643897754908 L 660 327.39849495060633 L 661 328.6870902382424 L 662 330.02923442813585 L 663 331.42394719706294 L 664 332.870209824883 L 665 334.36696593862746 L 666 335.91312228409254 L 667 337.50754952436716 L 668 339.14908306472 L 669 340.8365239032376 L 670 342.5686395065936 L 671 344.3441647103109 L 672 346.1618026428573 L 673 348.0202256729021 L 674 349.918076379037 L 675 351.85396854125923 L 676 353.8264881534888 L 677 355.8341944563796 L 678 357.87562098967317 L 679 359.94927666332535 L 680 362.0536468466201 L 681 364.1871944744809 L 682 366.3483611701664 L 683 368.53556838353484 L 684 370.74721854403964 L 685 372.98169622762157 L 686 375.2373693366401 L 687 377.51259029198206 L 688 379.8056972364796 L 689 382.11501524875825 L 690 384.4388575666236 L 691 386.77552681910043 L 692 389.12331626621847 L 693 391.48051104564314 L 694 393.8453894252366 L 695 396.2162240606383 L 696 398.5912832569459 L 697 400.9688322335704 L 698 403.347134391348 L 699 405.72445258098054 L 700 408.09905037187474 L 701 410.4691933204596 L 702 412.83315023705075 L 703 415.1891944503398 L 704 417.5356050685803 L 705 419.8706682365552 L 706 422.1926783874045 L 707 424.49993948839625 L 708 426.79076627973666 L 709 429.06348550551013 L 710 431.31643713585237 L 711 433.5479755794609 L 712 435.75647088556155 L 713 437.94030993445114 L 714 440.0978976157435 L 715 442.2276579934642 L 716 444.3280354571401 L 717 446.3974958580394 L 718 448.4345276297396 L 719 450.4376428921986 L 720 452.40537853852703 L 721 454.3362973036626 L 722 456.2289888141721 L 723 458.082070618411 L 724 459.8941891962865 L 725 461.6640209478905 L 726 463.39027316027847 L 727 465.07168495168617 L 728 466.70702819249806 L 729 468.29510840229244 L 730 469.83476562230925 L 731 471.32487526270114 L 732 472.7643489239521 L 733 474.15213519186227 L 734 475.48722040551604 L 735 476.7686293976768 L 736 477.99542620706484 L 737 479.1667147619968 L 738 480.2816395348918 L 739 481.33938616716154 L 740 482.3391820640312 L 741 483.28029695885425 L 742 484.16204344651067 L 743 484.9837774854992 L 744 485.7448988683546 L 745 486.4448516600488 L 746 487.0831246040549 L 747 487.65925149577674 L 748 488.17281152307197 L 749 488.62342957362006 L 750 489.0107765089103 L 751 489.3345694046494 L 752 489.5945717574141 L 753 489.79059365739704 L 754 489.9224919271196 L 755 489.99017022601134 L 756 489.9935791207784 L 757 489.9327161215104 L 758 489.80762568349917 L 759 489.61839917476794 L 760 489.3651748093346 L 761 489.04813754625786 L 762 488.6675189545408 L 763 488.2235970439886 L 764 487.7166960621461 L 765 487.1471862574624 L 766 486.51548360885533 L 767 485.82204952187385 L 768 485.0673904916806 L 769 484.2520577330996 L 770 483.37664677799995 L 771 482.4417970403107 L 772 481.44819134898233 L 773 480.3965554492378 L 774 479.287657472477 L 775 478.1223073752215 L 776 476.9013563475096 L 777 475.62569619117295 L 778 474.29625866845186 L 779 472.9140148214208 L 780 471.4799742627232 L 781 469.99518443813605 L 782 468.46072986149807 L 783 466.87773132256405 L 784 465.2473450683617 L 785 463.5707619586519 L 786 461.8492065961051 L 787 460.08393643183206 L 788 458.27624084692286 L 789 456.42744021066187 L 790 454.5388849161088 L 791 452.6119543937519 L 792 450.6480561039486 L 793 448.64862450889575 L 794 446.61512002487416 L 795 444.5490279555396 L 796 442.4518574070324 L 797 440.32514018570214 L 798 438.1704296792537 L 799 435.9892997221277 L 800 433.78334344594623 L 801 431.554172115866 L 802 429.3034139536838 L 803 427.0327129485586 L 804 424.74372765621445 L 805 422.4381299875073 L 806 420.117603987234 L 807 417.7838446040787 L 808 415.4385564525974 L 809 413.0834525681399 L 810 410.7202531556205 L 811 408.3506843330558 L 812 405.9764768707792 L 813 403.5993649272597 L 814 401.22108478244445 L 815 398.8433735695538 L 816 396.46796800625145 L 817 394.09660312611743 L 818 391.73101101135416 L 819 389.3729195276451 L 820 387.0240510620951 L 821 384.6861212651708 L 822 382.36083779756393 L 823 380.04989908288843 L 824 377.75499306712436 L 825 375.477795985717 L 826 373.21997113922777 L 827 370.98316767843187 L 828 368.76901939975494 L 829 366.5791435519207 L 830 364.41513965468835 L 831 362.27858833053625 L 832 360.1710501501528 L 833 358.0940644925696 L 834 356.04914842077454 L 835 354.0377955736265 L 836 352.0614750748771 L 837 350.12163046009897 L 838 348.21967862230633 L 839 346.35700877703295 L 840 344.5349814476275 L 841 342.7549274715054 L 842 341.0181470280853 L 843 339.32590868911706 L 844 337.6794484920963 L 845 336.07996903744447 L 846 334.5286386101099 L 847 333.02659032623353 L 848 331.5749213055044 L 849 330.1746918698051 L 850 328.8269247687366 L 851 327.532604432585 L 852 326.29267625327935 L 853 325.1080458938619 L 854 323.97957862697723 L 855 322.90809870286415 L 856 321.89438874731 L 857 320.9391891900089 L 858 320.0431977237391 L 859 319.20706879475887 L 860 318.4314131247874 L 861 317.7167972649244 L 862 317.0637431818325 L 863 316.47272787648444 L 864 315.9441830357538 L 865 315.47849471710447 L 866 315.0760030666082 L 867 314.7370020704965 L 868 314.46173934042804 L 869 314.25041593262995 L 870 314.10318620104266 L 871 314.0201576845776 L 872 314.0013910285689 L 873 314.04689994047726 L 874 314.15665117987777 L 875 314.33056458273904 L 876 314.5685131199767 L 877 314.8703229902369 L 878 315.23577374684396 L 879 315.664598458818 L 880 316.1564839058452 L 881 316.7110708070596 L 882 317.3279540834667 L 883 318.0066831538197 L 884 318.74676226373174 L 885 319.5476508477818 L 886 320.4087639243529 L 887 321.32947252291126 L 888 322.30910414341713 L 889 323.3469432475283 L 890 324.4422317812414 L 891 325.5941697285864 L 892 326.80191569597025 L 893 328.0645875267446 L 894 329.38126294554644 L 895 330.7509802319433 L 896 332.172738922888 L 897 333.64550054347296 L 898 335.16818936544917 L 899 336.7396931929542 L 900 338.35886417487757 L 901 340.0245196432704 L 902 341.7354429771833 L 903 343.4903844913059 L 904 345.28806234875674 L 905 347.12716349735774 L 906 349.0063446287068 L 907 350.92423315935207 L 908 352.8794282333493 L 909 354.8705017454675 L 910 356.89599938430024 L 911 358.95444169451827 L 912 361.04432515748556 L 913 363.16412328945387 L 914 365.31228775653 L 915 367.4872495056042 L 916 369.6874199104099 L 917 371.9111919318818 L 918 374.15694129196334 L 919 376.42302766000364 L 920 378.7077958508812 L 921 381.00957703397813 L 922 383.3266899521188 L 923 385.65744214958715 L 924 388.0001312083231 L 925 390.35304599139596 L 926 392.7144678928444 L 927 395.08267209297406 L 928 397.4559288181938 L 929 399.8325046044678 L 930 402.2106635634661 L 931 404.58866865048435 L 932 406.96478293320945 L 933 409.3372708604007 L 934 411.7043995295644 L 935 414.0644399526943 L 936 416.4156683191493 L 937 418.75636725475334 L 938 421.0848270761931 L 939 423.3993470397958 L 940 425.6982365837804 L 941 427.97981656306973 L 942 430.24242047576587 L 943 432.4843956803876 L 944 434.70410460298626 L 945 436.8999259332568 L 946 439.0702558087664 L 947 441.2135089864416 L 948 443.3281200004558 L 949 445.4125443056683 L 950 447.46525940578556 L 951 449.4847659654158 L 952 451.4695889052084 L 953 453.4182784792731 L 954 455.32941133409844 L 955 457.20159154819197 L 956 459.03345165168196 L 957 460.82365362513957 L 958 462.5708898768899 L 959 464.27388419809625 L 960 465.93139269492406 L 961 467.54220469709986 L 962 469.105143642205 L 963 470.6190679350541 L 964 472.0828717815343 L 965 473.4954859962959 L 966 474.85587878370046 L 967 476.1630564914617 L 968 477.4160643364241 L 969 478.6139871019524 L 970 479.7559498064192 L 971 480.8411183423058 L 972 481.86870008544764 L 973 482.8379444739791 L 974 483.74814355655565 L 975 484.59863250945324 L 976 485.3887901221652 L 977 486.1180392511446 L 978 486.78584724135897 L 979 487.39172631535 L 980 487.9352339295135 L 981 488.41597309734055 L 982 488.83359267938255 L 983 489.18778763972904 L 984 489.4782992688106 L 985 489.7049153723646 L 986 489.86747042642514 L 987 489.96584569822426 L 988 489.9999693329163 L 989 489.96981640606185 L 990 489.8754089418329 L 991 489.716815896926 L 992 489.4941531101953 L 993 489.20758321804203 L 994 488.85731553562215 L 995 488.4436059039594 L 996 487.9667565030751 L 997 487.4271156312708 L 998 486.8250774507262 L 999 486.16108169959625 L 1000 485.4356133708201 L 1001 484.6492023578743 L 1002 483.80242306773016 L 1003 482.8958940012983 L 1004 481.9302773016656 L 1005 480.90627827045546 L 1006 479.82464485266416 L 1007 478.6861670903506 L 1008 477.491676545577 L 1009 476.24204569302225 L 1010 474.93818728271384 L 1011 473.58105367334014 L 1012 472.17163613663223 L 1013 470.7109641333245 L 1014 469.2001045612198 L 1015 467.6401609759105 L 1016 466.03227278472355 L 1017 464.3776144144807 L 1018 462.6773944536782 L 1019 460.93285476971363 L 1020 459.1452696018082 L 1021 457.31594463028154 L 1022 455.4462160228615 L 1023 453.53744945872785 L 1024 451.5910391309975 L 1025 449.6084067283847 L 1026 447.5910003967759 L 1027 445.54029368148304 L 1028 443.45778445094203 L 1029 441.3449938026452 L 1030 439.2034649521096 L 1031 437.0347621056869 L 1032 434.8404693180421 L 1033 432.62218933513645 L 1034 430.38154242355563 L 1035 428.120165187042 L 1036 425.83970937109245 L 1037 423.54184065649923 L 1038 421.2282374427096 L 1039 418.9005896218955 L 1040 416.56059734463173 L 1041 414.20996977807783 L 1042 411.8504238575763 L 1043 409.48368303257456 L 1044 407.11147600779253 L 1045 404.7355354805482 L 1046 402.35759687516776 L 1047 399.9793970754059 L 1048 397.60267315579785 L 1049 395.2291611128717 L 1050 392.8605945971514 L 1051 390.4987036468697 L 1052 388.14521342432164 L 1053 385.8018429557777 L 1054 383.47030387588177 L 1055 381.15229917744546 L 1056 378.8495219675544 L 1057 376.5636542308979 L 1058 374.2963656012203 L 1059 372.049312141793 L 1060 369.8241351358016 L 1061 367.62245988752596 L 1062 365.4458945351927 L 1063 363.2960288763647 L 1064 361.17443320672965 L 1065 359.08265717313054 L 1066 357.02222864167845 L 1067 354.9946525817767 L 1068 353.00140996686656 L 1069 351.0439566927007 L 1070 349.1237225139349 L 1071 347.2421099998122 L 1072 345.4004935097048 L 1073 343.60021818925884 L 1074 341.8425989878811 L 1075 340.1289196982779 L 1076 338.46043201875244 L 1077 336.8383546389457 L 1078 335.26387234968587 L 1079 333.7381351775985 L 1080 332.26225754510847 L 1081 330.83731745644934 L 1082 329.46435571027166 L 1083 328.14437513942653 L 1084 326.878339878482 L 1085 325.66717465950325 L 1086 324.5117641366136 L 1087 323.4129522398298 L 1088 322.371541558642 L 1089 321.3882927557896 L 1090 320.46392401166133 L 1091 319.59911049972527 L 1092 318.79448389337114 L 1093 318.0506319045262 L 1094 317.3680978543815 L 1095 316.7473802765413 L 1096 316.1889325528862 L 1097 315.693162582416 L 1098 315.26043248331405 L 1099 314.8910583284502 L 1100 314.585309914516 L 1101 314.3434105649615 L 1102 314.16553696687595 L 1103 314.05181904193256 L 1104 314.00233985149225 L 1105 314.0171355359338 L 1106 314.0961952882567 L 1107 314.23946136197435 L 1108 314.4468291132936 L 1109 314.7181470775475 L 1110 315.0532170798282 L 1111 315.4517943797364 L 1112 315.91358785014387 L 1113 316.43826018983754 L 1114 317.0254281698891 L 1115 317.6746629135717 L 1116 318.3854902096182 L 1117 319.15739085859275 L 1118 319.98980105212183 L 1119 320.882112784709 L 1120 321.8336742978319 L 1121 322.84379055599635 L 1122 323.91172375440146 L 1123 325.0366938578444 L 1124 326.2178791704694 L 1125 327.4544169359481 L 1126 328.74540396764974 L 1127 330.08989730834384 L 1128 331.48691491894976 L 1129 332.93543639583413 L 1130 334.43440371613013 L 1131 335.9827220105332 L 1132 337.5792603630109 L 1133 339.2228526368429 L 1134 340.91229832638385 L 1135 342.6463634339329 L 1136 344.423781371064 L 1137 346.2432538837637 L 1138 348.1034520006942 L 1139 350.0030170038958 L 1140 351.940561421217 L 1141 353.91467003974407 L 1142 355.92390093949547 L 1143 357.9667865466242 L 1144 360.0418347053547 L 1145 362.14752976787827 L 1146 364.2823337014054 L 1147 366.4446872115703 L 1148 368.6330108813622 L 1149 370.84570632475743 L 1150 373.0811573542064 L 1151 375.3377311611207 L 1152 377.6137795085034 L 1153 379.9076399348466 L 1154 382.2176369684208 L 1155 384.54208335106375 L 1156 386.87928127058154 L 1157 389.22752360085804 L 1158 391.5850951487648 L 1159 393.9502739069664 L 1160 396.32133231170195 L 1161 398.6965385046235 L 1162 401.07415759777365 L 1163 403.45245294077455 L 1164 405.82968738930555 L 1165 408.2041245739392 L 1166 410.5740301684136 L 1167 412.9376731564124 L 1168 415.2933270959247 L 1169 417.63927138026617 L 1170 419.9737924948383 L 1171 422.29518526870436 L 1172 424.6017541200747 L 1173 426.8918142947853 L 1174 429.16369309687013 L 1175 431.41573111032284 L 1176 433.646283411161 L 1177 435.85372076890553 L 1178 438.0364308365945 L 1179 440.19281932846735 L 1180 442.32131118445744 L 1181 444.4203517206388 L 1182 446.48840776479284 L 1183 448.52396877626114 L 1184 450.5255479492688 L 1185 452.49168329890915 L 1186 454.4209387290029 L 1187 456.3119050810421 L 1188 458.1632011634652 L 1189 459.9734747604993 L 1190 461.74140361983865 L 1191 463.4656964184412 L 1192 465.14509370573006 L 1193 466.77836882351426 L 1194 468.36432880196264 L 1195 469.9018152309644 L 1196 471.38970510625256 L 1197 472.8269116496631 L 1198 474.21238510293347 L 1199 475.54511349446494 L 1200 476.8241233784813 L 1201 478.04848054604804 L 1202 479.2172907074352 L 1203 480.32970014531975 L 1204 481.3848963383532 L 1205 482.3821085546417 L 1206 483.3206084147 L 1207 484.19971042347026 L 1208 485.01877247102016 L 1209 485.77719630154934 L 1210 486.474427950364 L 1211 487.10995814850304 L 1212 487.68332269471506 L 1213 488.1941027945181 L 1214 488.6419253660946 L 1215 489.02646331279544 L 1216 489.3474357620569 L 1217 489.6046082705542 L 1218 489.7977929954426 L 1219 489.926848831561 L 1220 489.99168151449703 L 1221 489.99224368943953 L 1222 489.92853494576696 L 1223 489.8006018173477 L 1224 489.60853774855076 L 1225 489.35248302599246 L 1226 489.03262467606896 L 1227 488.6491963283495 L 1228 488.20247804492925 L 1229 487.6927961158677 L 1230 487.1205228208616 L 1231 486.48607615732533 L 1232 485.78991953508 L 1233 485.0325614378706 L 1234 484.2145550519617 L 1235 483.33649786208264 L 1236 482.39903121501357 L 1237 481.4028398511364 L 1238 480.34865140429065 L 1239 479.2372358702965 L 1240 478.06940504453854 L 1241 476.8460119290186 L 1242 475.56795010930773 L 1243 474.23615310185846 L 1244 472.8515936721504 L 1245 471.41528312416517 L 1246 469.92827056171507 L 1247 468.3916421221621 L 1248 466.8065201830843 L 1249 465.1740625424741 L 1250 463.49546157306617 L 1251 461.77194335140655 L 1252 460.0047667623104 L 1253 458.1952225793497 L 1254 456.3446325220533 L 1255 454.45434829050373 L 1256 452.5257505780309 L 1257 450.56024806273405 L 1258 448.5592763785621 L 1259 446.52429706670125 L 1260 444.4567965080438 L 1261 442.3582848375138 L 1262 440.23029484103733 L 1263 438.07438083597356 L 1264 435.8921175358181 L 1265 433.6850989000047 L 1266 431.4549369696533 L 1267 429.203260690112 L 1268 426.9317147211456 L 1269 424.64195823565484 L 1270 422.33566370778635 L 1271 420.014515691333 L 1272 417.68020958931106 L 1273 415.33445041560776 L 1274 412.9789515496139 L 1275 410.6154334847466 L 1276 408.24562257177 L 1277 405.8712497578436 L 1278 403.4940493222128 L 1279 401.1157576094607 L 1280 398.73811176125616 L 1281 396.3628484475205 L 1282 393.9917025979323 L 1283 391.6264061347097 L 1284 389.268686707589 L 1285 386.9202664319181 L 1286 384.58286063079856 L 1287 382.25817658218836 L 1288 379.94791227187494 L 1289 377.65375515324445 L 1290 375.3773809147351 L 1291 373.12045225589003 L 1292 370.88461767289675 L 1293 368.6715102544962 L 1294 366.4827464891511 L 1295 364.3199250843387 L 1296 362.1846257988265 L 1297 360.0784082887932 L 1298 358.00281096863296 L 1299 355.95934988727015 L 1300 353.9495176208149 L 1301 351.9747821823636 L 1302 350.0365859497359 L 1303 348.1363446119411 L 1304 346.2754461351377 L 1305 344.4552497488379 L 1306 342.6770849531089 L 1307 340.9422505474814 L 1308 339.25201368228824 L 1309 337.6076089331183 L 1310 336.01023739906094 L 1311 334.46106582540557 L 1312 332.9612257514337 L 1313 331.51181268392236 L 1314 330.1138852969702 L 1315 328.7684646587261 L 1316 327.47653348558276 L 1317 326.23903542438666 L 1318 325.0568743631839 L 1319 323.9309137710048 L 1320 322.8619760671731 L 1321 321.85084202059915 L 1322 320.89825017949204 L 1323 320.00489633191336 L 1324 319.17143299756333 L 1325 318.3984689511685 L 1326 317.6865687778249 L 1327 317.03625246061483 L 1328 316.4479950008034 L 1329 315.922226070891 L 1330 315.4593297007724 L 1331 315.0596439972361 L 1332 314.7234608970058 L 1333 314.451025953505 L 1334 314.2425381575007 L 1335 314.09814979175815 L 1336 314.0179663198104 L 1337 314.0020463089262 L 1338 314.05040138733204 L 1339 314.1629962357182 L 1340 314.3397486130366 L 1341 314.5805294165711 L 1342 314.8851627762362 L 1343 315.25342618303506 L 1344 315.68505065158377 L 1345 316.17972091658277 L 1346 316.7370756630906 L 1347 317.3567077904352 L 1348 318.03816470956633 L 1349 318.78094867363274 L 1350 319.5845171415458 L 1351 320.44828317425925 L 1352 321.37161586347827 L 1353 322.35384079248587 L 1354 323.3942405287471 L 1355 324.4920551479321 L 1356 325.64648278897823 L 1357 326.85668023978144 L 1358 328.12176355309083 L 1359 329.44080869215907 L 1360 330.8128522056727 L 1361 332.2368919314711 L 1362 333.711887728544 L 1363 335.2367622367636 L 1364 336.81040166380825 L 1365 338.4316565986929 L 1366 340.09934285131516 L 1367 341.8122423174096 L 1368 343.56910386826826 L 1369 345.368644264584 L 1370 347.20954909375115 L 1371 349.09047372993155 L 1372 351.01004431618924 L 1373 352.9668587679802 L 1374 354.95948779725524 L 1375 356.98647595643274 L 1376 359.0463427014842 L 1377 361.13758347334465 L 1378 363.258670796865 L 1379 365.4080553965076 L 1380 367.58416732795723 L 1381 369.78541712483667 L 1382 372.01019695967653 L 1383 374.25688181829594 L 1384 376.52383068674186 L 1385 378.8093877499099 L 1386 381.1118836009757 L 1387 383.4296364607597 L 1388 385.76095340612324 L 1389 388.10413160650427 L 1390 390.45745956769554 L 1391 392.8192183819448 L 1392 395.18768298347027 L 1393 397.5611234084797 L 1394 399.9378060587609 L 1395 402.3159949679275 L 1396 404.69395306940004 L 1397 407.06994346518445 L 1398 409.44223069452795 L 1399 411.80908200153135 L 1400 414.1687686007761 L 1401 416.5195669400607 L 1402 418.85975995930863 L 1403 421.1876383447339 L 1404 423.5015017773547 L 1405 425.7996601749311 L 1406 428.08043492642594 L 1407 430.3421601180923 L 1408 432.5831837502814 L 1409 434.8018689440874 L 1410 436.99659513695275 L 1411 439.165759266351 L 1412 441.3077769406873 L 1413 443.42108359656595 L 1414 445.5041356415709 L 1415 447.5554115817278 L 1416 449.5734131328315 L 1417 451.5566663148114 L 1418 453.5037225283541 L 1419 455.41315961298096 L 1420 457.28358288581535 L 1421 459.11362616028373 L 1422 460.90195274399844 L 1423 462.64725641509744 L 1424 464.34826237633195 L 1425 466.0037281861972 L 1426 467.61244466642984 L 1427 469.1732367852134 L 1428 470.68496451543876 L 1429 472.14652366739637 L 1430 473.5568466952967 L 1431 474.9149034770209 L 1432 476.2197020665371 L 1433 477.47028941843575 L 1434 478.6657520840478 L 1435 479.80521687864103 L 1436 480.8878515192101 L 1437 481.9128652323867 L 1438 482.87950933203496 L 1439 483.7870777661027 L 1440 484.63490763233216 L 1441 485.42237966245574 L 1442 486.14891867451854 L 1443 486.8139939929997 L 1444 487.41711983642745 L 1445 487.95785567220065 L 1446 488.4358065383607 L 1447 488.8506233320784 L 1448 489.2020030646441 L 1449 489.4896890827749 L 1450 489.71347125607895 L 1451 489.8731861305375 L 1452 489.9687170478944 L 1453 489.99999423086535 L 1454 489.9669948341039 L 1455 489.8697429608885 L 1456 489.70830964551675 L 1457 489.482812801421 L 1458 489.1934171350426 L 1459 488.8403340255272 L 1460 488.4238213703312 L 1461 487.94418339684813 L 1462 487.40177044019674 L 1463 486.79697868733126 L 1464 486.1302498876592 L 1465 485.402071030381 L 1466 484.6129739887863 L 1467 483.7635351317639 L 1468 482.8543749028136 L 1469 481.8861573668651 L 1470 480.8595897252334 L 1471 479.7754217990679 L 1472 478.63444548167297 L 1473 477.43749416009393 L 1474 476.1854421064007 L 1475 474.87920383910375 L 1476 473.5197334551757 L 1477 472.10802393316567 L 1478 470.6451064079098 L 1479 469.1320494173748 L 1480 467.5699581221827 L 1481 465.95997349838166 L 1482 464.3032715040601 L 1483 462.60106222041 L 1484 460.8545889678616 L 1485 459.06512739794454 L 1486 457.2339845615325 L 1487 455.3624979541505 L 1488 453.45203453904844 L 1489 451.50398974875077 L 1490 449.5197864658076 L 1491 447.50087398350274 L 1492 445.4487269472635 L 1493 443.364844277558 L 1494 441.2507480750618 L 1495 439.10798250888837 L 1496 436.9381126887052 L 1497 434.7427235215549 L 1498 432.5234185542107 L 1499 430.2818188019225 L 1500 428.0195615644033 L 1501 425.7382992299167 L 1502 423.43969806834775 L 1503 421.1254370141354 L 1504 418.79720643994864 L 1505 416.45670692201355 L 1506 414.10564799798755 L 1507 411.74574691828235 L 1508 409.37872739175936 L 1509 407.0063183267073 L 1510 404.6302525680161 L 1511 402.25226563148476 L 1512 399.8740944361689 L 1513 397.4974760357096 L 1514 395.1241463495641 L 1515 392.7558388950592 L 1516 390.39428352120444 L 1517 388.0412051451856 L 1518 385.698322492454 L 1519 383.3673468413442 L 1520 381.04998077313155 L 1521 378.74791692843604 L 1522 376.4628367708931 L 1523 374.1964093589876 L 1524 371.9502901269439 L 1525 369.7261196755726 L 1526 367.52552257395115 L 1527 365.35010617280955 L 1528 363.20145943050045 L 1529 361.08115175239476 L 1530 358.99073184456546 L 1531 356.93172658258965 L 1532 354.9056398962914 L 1533 352.91395167124944 L 1534 350.958116667867 L 1535 349.03956345878873 L 1536 347.1596933854505 L 1537 345.31987953451903 L 1538 343.5214657349646 L 1539 341.76576557650895" stroke-linecap="round" stroke-linejoin="round" stroke-miterlimit="10" stroke-width="45"/></g></svg>